<svg width="40" height="40" viewBox="0 0 40 40" fill="none" xmlns="http://www.w3.org/2000/svg">
<path d="M20.8633 8.09891C22.3906 6.57156 24.3906 5.80984 26.3906 5.80984C27.9219 5.80984 29.4531 6.25516 30.7695 7.14969L33.7422 4.17703C33.8047 4.11844 33.8828 4.08719 33.9648 4.08719C34.0469 4.08719 34.125 4.11453 34.1875 4.17703L35.8437 5.83328C35.9648 5.95438 35.9648 6.15359 35.8437 6.27859L32.8711 9.25125C34.9297 12.2903 34.6133 16.4583 31.9219 19.1536L27.9414 23.1341C27.8789 23.1927 27.7969 23.2239 27.7187 23.2239C27.6367 23.2239 27.5586 23.1966 27.4961 23.1341L16.8828 12.5208C16.7617 12.3997 16.7617 12.2005 16.8828 12.0794L20.8633 8.09891ZM12.0508 16.9075C12.1133 16.8489 12.1953 16.8177 12.2734 16.8177C12.3186 16.8177 12.3626 16.8259 12.4034 16.8438L12.4022 16.8452L23.1842 27.6272C23.2258 27.7384 23.2022 27.8694 23.1133 27.9583L19.1328 31.9388C17.6055 33.4661 15.6055 34.2278 13.6055 34.2278C12.0742 34.2278 10.543 33.7825 9.22656 32.888L6.25391 35.8606C6.19141 35.9192 6.11328 35.9505 6.03125 35.9505C5.94922 35.9505 5.87109 35.9231 5.80859 35.8606L4.15234 34.2044C4.03125 34.0833 4.03125 33.8841 4.15234 33.763L7.125 30.7903C5.06641 27.7513 5.38281 23.5833 8.07422 20.888L12.0508 16.9075Z" fill="#537CE3"/>
<path d="M22.1801 21.4303C22.2091 21.4013 22.2435 21.3782 22.2815 21.3625C22.3194 21.3468 22.36 21.3387 22.4011 21.3387C22.4421 21.3387 22.4827 21.3468 22.5206 21.3625C22.5586 21.3782 22.593 21.4013 22.622 21.4303L23.9479 22.7561C23.9769 22.7851 23.9999 22.8196 24.0156 22.8575C24.0313 22.8954 24.0394 22.936 24.0394 22.9771C24.0394 23.0181 24.0313 23.0588 24.0156 23.0967C23.9999 23.1346 23.9769 23.169 23.9479 23.1981L21.3514 25.7945L19.5837 24.0267L22.1801 21.4303ZM16.7664 16.0165C16.825 15.9579 16.9045 15.925 16.9873 15.925C17.0702 15.925 17.1497 15.9579 17.2083 16.0165L18.5341 17.3423C18.5927 17.401 18.6256 17.4804 18.6256 17.5633C18.6256 17.6462 18.5927 17.7257 18.5341 17.7843L15.9377 20.3807L14.1699 18.6129L16.7664 16.0165Z" fill="#537CE3"/>
</svg>
