<svg width="281" height="79" viewBox="0 0 281 79" fill="none" xmlns="http://www.w3.org/2000/svg">
<path d="M0.738487 23.5731C0.494417 23.704 0.190445 23.6123 0.0595332 23.3682C-0.071348 23.1241 0.0203852 22.8201 0.264487 22.6892L0.501487 23.1312L0.738487 23.5731ZM281 75.7431C281 77.2203 279.802 78.4177 278.325 78.4177C276.848 78.4177 275.651 77.2203 275.651 75.7431C275.651 74.266 276.848 73.0685 278.325 73.0685C279.802 73.0685 281 74.266 281 75.7431ZM277.039 72.9982C276.959 72.7331 277.108 72.4531 277.374 72.3727C277.639 72.2922 277.919 72.4419 277.999 72.7069L277.519 72.8526L277.039 72.9982ZM276.004 67.0627C276.108 67.3194 275.985 67.6118 275.728 67.7157C275.471 67.8197 275.179 67.6959 275.075 67.4392L275.54 67.2509L276.004 67.0627ZM272.61 62.0623C272.484 61.816 272.581 61.5137 272.827 61.3871C273.073 61.2606 273.376 61.3577 273.502 61.6041L273.056 61.8332L272.61 62.0623ZM270.533 56.3978C270.681 56.6322 270.61 56.9418 270.376 57.0893C270.141 57.2367 269.832 57.1662 269.684 56.9318L270.109 56.6648L270.533 56.3978ZM266.331 52.0644C266.164 51.843 266.209 51.5286 266.43 51.3622C266.652 51.1959 266.966 51.2405 267.132 51.4619L266.732 51.7632L266.331 52.0644ZM263.337 46.8041C263.52 47.0119 263.5 47.3288 263.292 47.5119C263.084 47.695 262.767 47.675 262.584 47.4672L262.96 47.1357L263.337 46.8041ZM258.523 43.1833C258.325 42.9892 258.323 42.6717 258.517 42.4741C258.711 42.2765 259.028 42.2738 259.226 42.4679L258.874 42.8256L258.523 43.1833ZM254.819 38.4195C255.029 38.6001 255.053 38.9168 254.873 39.1267C254.692 39.3367 254.375 39.3604 254.165 39.1798L254.492 38.7996L254.819 38.4195ZM249.541 35.4433C249.321 35.2757 249.278 34.9611 249.446 34.7406C249.613 34.52 249.928 34.4771 250.148 34.6447L249.845 35.044L249.541 35.4433ZM245.294 31.1657C245.523 31.3209 245.583 31.6327 245.428 31.8621C245.273 32.0915 244.961 32.1517 244.732 31.9965L245.013 31.5811L245.294 31.1657ZM239.743 28.8044C239.506 28.6609 239.43 28.3526 239.573 28.1157C239.717 27.8787 240.025 27.803 240.262 27.9464L240.002 28.3754L239.743 28.8044ZM235.054 24.9572C235.297 25.0896 235.387 25.3942 235.255 25.6374C235.122 25.8807 234.818 25.9706 234.574 25.8382L234.814 25.3977L235.054 24.9572ZM229.318 23.1209C229.069 22.9989 228.967 22.6984 229.089 22.4498C229.211 22.2011 229.511 22.0986 229.76 22.2207L229.539 22.6708L229.318 23.1209ZM224.345 19.692C224.599 19.8044 224.713 20.1007 224.6 20.3539C224.488 20.607 224.191 20.7211 223.938 20.6087L224.142 20.1503L224.345 19.692ZM218.446 18.2872C218.189 18.1839 218.064 17.8918 218.168 17.6349C218.271 17.3779 218.563 17.2533 218.82 17.3567L218.633 17.822L218.446 18.2872ZM213.264 15.2289C213.525 15.3238 213.659 15.6117 213.564 15.8719C213.469 16.1321 213.181 16.2661 212.921 16.1712L213.093 15.7001L213.264 15.2289ZM207.291 14.2166C207.028 14.1298 206.885 13.8461 206.972 13.5832C207.059 13.3202 207.343 13.1774 207.606 13.2643L207.449 13.7405L207.291 14.2166ZM201.917 11.4749C202.183 11.5543 202.333 11.8338 202.254 12.0991C202.175 12.3645 201.895 12.5152 201.63 12.4358L201.774 11.9554L201.917 11.4749ZM195.912 10.8083C195.645 10.7359 195.487 10.4606 195.559 10.1932C195.631 9.92588 195.907 9.76777 196.174 9.84009L196.043 10.3242L195.912 10.8083ZM190.381 8.35132C190.65 8.41692 190.815 8.68824 190.749 8.95732C190.683 9.2264 190.412 9.39135 190.143 9.32575L190.262 8.83853L190.381 8.35132ZM184.361 7.9887C184.091 7.92945 183.92 7.66209 183.979 7.39154C184.038 7.12099 184.306 6.9497 184.576 7.00895L184.469 7.49883L184.361 7.9887ZM178.71 5.79366C178.982 5.84682 179.159 6.11027 179.106 6.38208C179.053 6.6539 178.789 6.83114 178.517 6.77798L178.614 6.28582L178.71 5.79366ZM172.687 5.70215C172.414 5.65476 172.231 5.39514 172.279 5.12226C172.326 4.84938 172.586 4.66658 172.859 4.71396L172.773 5.20806L172.687 5.70215ZM166.957 3.75143C167.23 3.79324 167.418 4.04909 167.377 4.32288C167.335 4.59667 167.079 4.78472 166.805 4.74291L166.881 4.24717L166.957 3.75143ZM160.924 3.90382C160.649 3.86736 160.456 3.61523 160.493 3.34068C160.529 3.06613 160.781 2.87311 161.056 2.90957L160.99 3.40669L160.924 3.90382ZM155.128 2.17949C155.403 2.21077 155.601 2.45921 155.569 2.7344C155.538 3.0096 155.29 3.20733 155.014 3.17605L155.071 2.67777L155.128 2.17949ZM149.099 2.55857C148.823 2.53231 148.621 2.28752 148.647 2.0118C148.673 1.73608 148.918 1.53386 149.194 1.56011L149.146 2.05934L149.099 2.55857ZM143.247 1.04718C143.523 1.06855 143.73 1.30972 143.708 1.58586C143.687 1.862 143.446 2.06853 143.17 2.04717L143.208 1.54717L143.247 1.04718ZM137.233 1.63967C136.957 1.62309 136.746 1.38552 136.763 1.10906C136.779 0.832589 137.017 0.621914 137.293 0.6385L137.263 1.13909L137.233 1.63967ZM131.333 0.331737C131.61 0.343635 131.824 0.577597 131.812 0.854305C131.8 1.13101 131.567 1.34568 131.29 1.33378L131.311 0.832761L131.333 0.331737ZM125.344 1.12787C125.067 1.12059 124.849 0.890241 124.856 0.613373C124.863 0.336505 125.094 0.117964 125.37 0.125247L125.357 0.626561L125.344 1.12787ZM119.401 0.0175281C119.678 0.0202455 119.9 0.246961 119.898 0.523911C119.895 0.800862 119.668 1.02317 119.391 1.02045L119.396 0.518991L119.401 0.0175281ZM113.447 1.01075C113.17 1.01255 112.944 0.789502 112.942 0.512544C112.94 0.235586 113.163 0.00960127 113.44 0.00779245L113.444 0.509269L113.447 1.01075ZM107.465 0.0956275C107.742 0.0892948 107.972 0.308626 107.978 0.585517C107.984 0.862408 107.765 1.09201 107.488 1.09834L107.477 0.596983L107.465 0.0956275ZM101.549 1.28264C101.272 1.29349 101.039 1.07793 101.028 0.801184C101.017 0.524433 101.233 0.291286 101.51 0.280436L101.529 0.781538L101.549 1.28264ZM95.5393 0.563704C95.8158 0.548296 96.0525 0.759981 96.0679 1.03652C96.0833 1.31305 95.8716 1.54972 95.5951 1.56512L95.5672 1.06441L95.5393 0.563704ZM89.6622 1.94507C89.386 1.96508 89.1458 1.75735 89.1258 1.48111C89.1058 1.20487 89.3136 0.964721 89.5898 0.944718L89.626 1.4449L89.6622 1.94507ZM83.6373 1.42629C83.9132 1.40161 84.1568 1.60523 84.1815 1.8811C84.2061 2.15696 84.0025 2.40059 83.7267 2.42527L83.682 1.92578L83.6373 1.42629ZM77.8031 3.00669C77.5277 3.03614 77.2805 2.83676 77.2511 2.56137C77.2216 2.28598 77.421 2.03885 77.6964 2.0094L77.7497 2.50805L77.8031 3.00669ZM71.7764 2.69545C72.0512 2.66111 72.3018 2.85606 72.3362 3.13089C72.3705 3.40572 72.1756 3.65634 71.9007 3.69068L71.8386 3.19306L71.7764 2.69545ZM65.9895 4.4844C65.7154 4.5238 65.4612 4.33351 65.4218 4.05936C65.3824 3.78522 65.5727 3.53103 65.8468 3.49163L65.9182 3.98801L65.9895 4.4844ZM59.9783 4.39196C60.2517 4.34733 60.5094 4.53274 60.5541 4.80609C60.5987 5.07943 60.4133 5.3372 60.14 5.38183L60.0592 4.8869L59.9783 4.39196ZM54.2461 6.4049C53.9737 6.45505 53.7122 6.27489 53.6621 6.00251C53.6119 5.73012 53.7921 5.46865 54.0645 5.4185L54.1553 5.9117L54.2461 6.4049ZM48.2171 6.55872C48.4884 6.5028 48.7536 6.67737 48.8095 6.94863C48.8655 7.21989 48.6909 7.48512 48.4196 7.54104L48.3184 7.04988L48.2171 6.55872ZM42.6081 8.80708C42.3382 8.86913 42.0691 8.70061 42.007 8.43069C41.945 8.16077 42.1135 7.89165 42.3834 7.8296L42.4958 8.31834L42.6081 8.80708ZM36.5644 9.24141C36.8327 9.17278 37.1059 9.33467 37.1745 9.603C37.2431 9.87132 37.0813 10.1445 36.8129 10.2131L36.6887 9.72726L36.5644 9.24141ZM31.1053 11.7521C30.8388 11.8277 30.5615 11.6731 30.4858 11.4066C30.4102 11.1402 30.5648 10.8629 30.8313 10.7872L30.9683 11.2696L31.1053 11.7521ZM25.0836 12.5091C25.3477 12.4257 25.6295 12.5722 25.7129 12.8363C25.7963 13.1004 25.6498 13.3821 25.3857 13.4655L25.2347 12.9873L25.0836 12.5091ZM19.7378 15.3484C19.4765 15.4403 19.1902 15.303 19.0983 15.0417C19.0064 14.7805 19.1437 14.4942 19.405 14.4023L19.5714 14.8753L19.7378 15.3484ZM13.8322 16.4746C14.09 16.3733 14.3811 16.5001 14.4824 16.7579C14.5837 17.0156 14.4569 17.3067 14.1991 17.4081L14.0157 16.9413L13.8322 16.4746ZM8.71172 19.6953C8.4584 19.8073 8.16227 19.6927 8.05024 19.4394C7.93824 19.1861 8.05281 18.8899 8.30612 18.7779L8.5089 19.2366L8.71172 19.6953ZM2.87005 21.3376C3.11758 21.2134 3.41895 21.3133 3.54319 21.5609C3.66743 21.8084 3.56749 22.1098 3.31996 22.234L3.09499 21.7858L2.87005 21.3376ZM278.325 75.7431L277.839 75.8669C277.593 74.9002 277.326 73.944 277.039 72.9982L277.519 72.8526L277.999 72.7069C278.29 73.6672 278.561 74.638 278.811 75.6193L278.325 75.7431ZM275.54 67.2509L275.075 67.4392C274.332 65.6049 273.509 63.8128 272.61 62.0623L273.056 61.8332L273.502 61.6041C274.415 63.3809 275.25 65.2003 276.004 67.0627L275.54 67.2509ZM270.109 56.6648L269.684 56.9318C268.638 55.2688 267.519 53.6465 266.331 52.0644L266.732 51.7632L267.132 51.4619C268.337 53.0656 269.472 54.7107 270.533 56.3978L270.109 56.6648ZM262.96 47.1357L262.584 47.4672C261.293 46.0017 259.938 44.5738 258.523 43.1833L258.874 42.8256L259.226 42.4679C260.658 43.8747 262.029 45.32 263.337 46.8041L262.96 47.1357ZM254.492 38.7996L254.165 39.1798C252.677 37.8996 251.135 36.6542 249.541 35.4433L249.845 35.044L250.148 34.6447C251.758 35.8674 253.316 37.1256 254.819 38.4195L254.492 38.7996ZM245.013 31.5811L244.732 31.9965C243.113 30.9013 241.449 29.8374 239.743 28.8044L240.002 28.3754L240.262 27.9464C241.982 28.9878 243.66 30.0608 245.294 31.1657L245.013 31.5811ZM234.814 25.3977L234.574 25.8382C232.858 24.9044 231.105 23.9987 229.318 23.1209L229.539 22.6708L229.76 22.2207C231.559 23.1044 233.325 24.0165 235.054 24.9572L234.814 25.3977ZM224.142 20.1503L223.938 20.6087C222.137 19.8089 220.306 19.0352 218.446 18.2872L218.633 17.822L218.82 17.3567C220.691 18.1089 222.533 18.8872 224.345 19.692L224.142 20.1503ZM213.093 15.7001L212.921 16.1712C211.069 15.4959 209.191 14.8445 207.291 14.2166L207.449 13.7405L207.606 13.2643C209.516 13.8952 211.402 14.55 213.264 15.2289L213.093 15.7001ZM201.774 11.9554L201.63 12.4358C199.743 11.8714 197.837 11.3289 195.912 10.8083L196.043 10.3242L196.174 9.84009C198.107 10.363 200.022 10.9079 201.917 11.4749L201.774 11.9554ZM190.262 8.83853L190.143 9.32575C188.231 8.85965 186.304 8.41405 184.361 7.9887L184.469 7.49883L184.576 7.00895C186.526 7.43594 188.461 7.88331 190.381 8.35132L190.262 8.83853ZM178.614 6.28582L178.517 6.77798C176.586 6.40016 174.642 6.04162 172.687 5.70215L172.773 5.20806L172.859 4.71396C174.82 5.05463 176.771 5.41445 178.71 5.79366L178.614 6.28582ZM166.881 4.24717L166.805 4.74291C164.853 4.44488 162.893 4.16526 160.924 3.90382L160.99 3.40669L161.056 2.90957C163.031 3.17185 164.998 3.4524 166.957 3.75143L166.881 4.24717ZM155.071 2.67777L155.014 3.17605C153.049 2.95262 151.076 2.74686 149.099 2.55857L149.146 2.05934L149.194 1.56011C151.177 1.74897 153.156 1.95536 155.128 2.17949L155.071 2.67777ZM143.208 1.54717L143.17 2.04717C141.194 1.89431 139.215 1.75855 137.233 1.63967L137.263 1.13909L137.293 0.6385C139.28 0.757719 141.265 0.893878 143.247 1.04718L143.208 1.54717ZM131.311 0.832761L131.29 1.33378C129.308 1.24858 127.326 1.18001 125.344 1.12787L125.357 0.626561L125.37 0.125247C127.358 0.177532 129.346 0.246294 131.333 0.331737L131.311 0.832761ZM119.396 0.518991L119.391 1.02045C117.408 1.00099 115.426 0.997822 113.447 1.01075L113.444 0.509269L113.44 0.00779245C115.424 -0.00516659 117.412 -0.00198936 119.401 0.0175281L119.396 0.518991ZM107.477 0.596983L107.488 1.09834C105.503 1.14373 103.523 1.20524 101.549 1.28264L101.529 0.781538L101.51 0.280436C103.489 0.202818 105.475 0.141146 107.465 0.0956275L107.477 0.596983ZM95.5672 1.06441L95.5951 1.56512C93.6095 1.67576 91.6314 1.80248 89.6622 1.94507L89.626 1.4449L89.5898 0.944718C91.5645 0.801723 93.5482 0.674646 95.5393 0.563704L95.5672 1.06441ZM83.682 1.92578L83.7267 2.42527C81.7409 2.60292 79.7658 2.7968 77.8031 3.00669L77.7497 2.50805L77.6964 2.0094C79.665 1.79889 81.6458 1.60445 83.6373 1.42629L83.682 1.92578ZM71.8386 3.19306L71.9007 3.69068C69.9153 3.93875 67.9444 4.20341 65.9895 4.4844L65.9182 3.98801L65.8468 3.49163C67.8078 3.20975 69.7849 2.94427 71.7764 2.69545L71.8386 3.19306ZM60.0592 4.8869L60.14 5.38183C58.1558 5.70578 56.1906 6.0469 54.2461 6.4049L54.1553 5.9117L54.0645 5.4185C56.0157 5.05926 57.9876 4.71699 59.9783 4.39196L60.0592 4.8869ZM48.3184 7.04988L48.4196 7.54104C46.4578 7.94546 44.52 8.36758 42.6081 8.80708L42.4958 8.31834L42.3834 7.8296C44.3028 7.38836 46.248 6.96464 48.2171 6.55872L48.3184 7.04988ZM36.6887 9.72726L36.8129 10.2131C34.8792 10.7077 32.9759 11.2208 31.1053 11.7521L30.9683 11.2696L30.8313 10.7872C32.7106 10.2535 34.6224 9.73811 36.5644 9.24141L36.6887 9.72726ZM25.2347 12.9873L25.3857 13.4655C23.4622 14.073 21.5787 14.7007 19.7378 15.3484L19.5714 14.8753L19.405 14.4023C21.2565 13.7509 23.1503 13.1197 25.0836 12.5091L25.2347 12.9873ZM14.0157 16.9413L14.1991 17.4081C12.3162 18.1482 10.486 18.9108 8.71172 19.6953L8.5089 19.2366L8.30612 18.7779C10.0938 17.9875 11.937 17.2196 13.8322 16.4746L14.0157 16.9413ZM3.09499 21.7858L3.31996 22.234C2.44252 22.6744 1.58187 23.1208 0.738487 23.5731L0.501487 23.1312L0.264487 22.6892C1.11607 22.2325 1.98477 21.782 2.87005 21.3376L3.09499 21.7858Z" fill="url(#paint0_linear_0_52)"/>
<defs>
<linearGradient id="paint0_linear_0_52" x1="278.325" y1="76.0152" x2="0.520683" y2="23.7585" gradientUnits="userSpaceOnUse">
<stop offset="0.629808" stop-color="#2758D4"/>
<stop offset="0.850962" stop-color="#A1C4FF"/>
<stop offset="1" stop-color="#A7D1FF" stop-opacity="0"/>
</linearGradient>
</defs>
</svg>
