<svg width="48" height="80" viewBox="0 0 48 80" fill="none" xmlns="http://www.w3.org/2000/svg">
<path d="M2.347 0.976014C2.0841 0.891512 1.93948 0.609891 2.02399 0.346995C2.10849 0.0841 2.39011 -0.0605164 2.653 0.0239857L2.5 0.5L2.347 0.976014ZM46.6667 77C46.6667 78.4727 45.4728 79.6666 44 79.6666C42.5272 79.6666 41.3333 78.4727 41.3333 77C41.3333 75.5272 42.5272 74.3333 44 74.3333C45.4728 74.3333 46.6667 75.5272 46.6667 77ZM43.4832 74.0222C43.4801 73.7461 43.7014 73.5197 43.9775 73.5166C44.2536 73.5134 44.48 73.7347 44.4832 74.0108L43.9832 74.0165L43.4832 74.0222ZM44.3423 68.0941C44.3525 68.3701 44.1371 68.6021 43.8611 68.6122C43.5852 68.6224 43.3532 68.407 43.343 68.131L43.8427 68.1126L44.3423 68.0941ZM43.0369 62.2091C43.0184 61.9336 43.2267 61.6952 43.5022 61.6766C43.7777 61.6581 44.0161 61.8664 44.0347 62.1419L43.5358 62.1755L43.0369 62.2091ZM43.5328 56.2345C43.5613 56.5092 43.3617 56.7549 43.087 56.7834C42.8124 56.8119 42.5666 56.6123 42.5381 56.3377L43.0354 56.2861L43.5328 56.2345ZM41.8035 50.4671C41.763 50.194 41.9517 49.9397 42.2249 49.8993C42.498 49.8588 42.7523 50.0475 42.7927 50.3206L42.2981 50.3939L41.8035 50.4671ZM41.7711 44.4626C41.826 44.7332 41.6511 44.9971 41.3804 45.0519C41.1098 45.1068 40.8459 44.9319 40.7911 44.6612L41.2811 44.5619L41.7711 44.4626ZM39.442 38.9323C39.3697 38.6658 39.5272 38.3912 39.7937 38.3189C40.0603 38.2467 40.3349 38.4042 40.4072 38.6707L39.9246 38.8015L39.442 38.9323ZM38.6277 32.9796C38.7208 33.2396 38.5856 33.5258 38.3256 33.6189C38.0657 33.7121 37.7794 33.5768 37.6863 33.3168L38.157 33.1482L38.6277 32.9796ZM35.4488 27.8808C35.3312 27.6309 35.4384 27.3331 35.6882 27.2155C35.9381 27.0979 36.2359 27.2051 36.3535 27.4549L35.9012 27.6678L35.4488 27.8808ZM33.5121 22.1933C33.6572 22.4283 33.5843 22.7364 33.3493 22.8814C33.1144 23.0265 32.8063 22.9536 32.6612 22.7186L33.0867 22.456L33.5121 22.1933ZM29.2806 17.9401C29.1069 17.7254 29.1401 17.4106 29.3548 17.2369C29.5695 17.0633 29.8844 17.0965 30.058 17.3112L29.6693 17.6257L29.2806 17.9401ZM25.991 12.9168C26.1917 13.1065 26.2005 13.423 26.0108 13.6236C25.8211 13.8243 25.5046 13.8331 25.304 13.6434L25.6475 13.2801L25.991 12.9168ZM20.7958 9.90497C20.5725 9.74251 20.5232 9.42979 20.6857 9.20649C20.8481 8.98319 21.1609 8.93388 21.3841 9.09634L21.09 9.50065L20.7958 9.90497ZM16.3532 5.86877C16.5935 6.00471 16.6782 6.30976 16.5423 6.55013C16.4063 6.79049 16.1013 6.87515 15.8609 6.73921L16.107 6.30399L16.3532 5.86877ZM10.6112 4.10344C10.3589 3.99104 10.2456 3.69545 10.358 3.44321C10.4704 3.19098 10.766 3.07763 11.0182 3.19002L10.8147 3.64673L10.6112 4.10344ZM5.47661 0.980184C5.73669 1.07298 5.8723 1.35905 5.7795 1.61913C5.68671 1.87921 5.40064 2.01483 5.14056 1.92203L5.30858 1.45111L5.47661 0.980184ZM44 77H43.5C43.5 75.9944 43.4944 75.0018 43.4832 74.0222L43.9832 74.0165L44.4832 74.0108C44.4944 74.9943 44.5 75.9907 44.5 77H44ZM43.8427 68.1126L43.343 68.131C43.268 66.0975 43.1659 64.1242 43.0369 62.2091L43.5358 62.1755L44.0347 62.1419C44.1644 64.0676 44.2669 66.051 44.3423 68.0941L43.8427 68.1126ZM43.0354 56.2861L42.5381 56.3377C42.3278 54.31 42.083 52.3541 41.8035 50.4671L42.2981 50.3939L42.7927 50.3206C43.0745 52.2229 43.3211 54.1933 43.5328 56.2345L43.0354 56.2861ZM41.2811 44.5619L40.7911 44.6612C40.3868 42.6669 39.9371 40.7587 39.442 38.9323L39.9246 38.8015L40.4072 38.6707C40.9083 40.5192 41.3628 42.4484 41.7711 44.4626L41.2811 44.5619ZM38.157 33.1482L37.6863 33.3168C37.0012 31.4042 36.2554 29.5945 35.4488 27.8808L35.9012 27.6678L36.3535 27.4549C37.1746 29.1992 37.9325 31.0386 38.6277 32.9796L38.157 33.1482ZM33.0867 22.456L32.6612 22.7186C31.6114 21.0182 30.4846 19.4286 29.2806 17.9401L29.6693 17.6257L30.058 17.3112C31.2893 18.8333 32.4405 20.4576 33.5121 22.1933L33.0867 22.456ZM25.6475 13.2801L25.304 13.6434C23.8864 12.3031 22.384 11.0604 20.7958 9.90497L21.09 9.50065L21.3841 9.09634C23.0056 10.276 24.5412 11.546 25.991 12.9168L25.6475 13.2801ZM16.107 6.30399L15.8609 6.73921C14.1898 5.79413 12.4402 4.91847 10.6112 4.10344L10.8147 3.64673L11.0182 3.19002C12.8738 4.01692 14.6521 4.90675 16.3532 5.86877L16.107 6.30399ZM5.30858 1.45111L5.14056 1.92203C4.22636 1.59584 3.2952 1.28079 2.347 0.976014L2.5 0.5L2.653 0.0239857C3.61075 0.331833 4.55195 0.650265 5.47661 0.980184L5.30858 1.45111Z" fill="url(#paint0_linear_7552_28703)"/>
<defs>
<linearGradient id="paint0_linear_7552_28703" x1="44" y1="77.2711" x2="-1.51309" y2="75.9109" gradientUnits="userSpaceOnUse">
<stop offset="0.629808" stop-color="#2758D4"/>
<stop offset="0.850962" stop-color="#A1C4FF"/>
<stop offset="1" stop-color="#A7D1FF" stop-opacity="0"/>
</linearGradient>
</defs>
</svg>
