<svg width="48" height="80" viewBox="0 0 48 80" fill="none" xmlns="http://www.w3.org/2000/svg">
<path d="M45.653 0.976014C45.9159 0.891512 46.0605 0.609891 45.976 0.346995C45.8915 0.0841 45.6099 -0.0605164 45.347 0.0239857L45.5 0.5L45.653 0.976014ZM1.33333 77C1.33333 78.4727 2.52724 79.6666 4 79.6666C5.47276 79.6666 6.66667 78.4727 6.66667 77C6.66667 75.5272 5.47276 74.3333 4 74.3333C2.52724 74.3333 1.33333 75.5272 1.33333 77ZM4.51675 74.0222C4.5199 73.7461 4.29861 73.5197 4.02249 73.5166C3.74636 73.5134 3.51997 73.7347 3.51682 74.0108L4.01679 74.0165L4.51675 74.0222ZM3.65767 68.0941C3.64748 68.3701 3.86293 68.6021 4.13889 68.6122C4.41484 68.6224 4.6468 68.407 4.65699 68.131L4.15733 68.1126L3.65767 68.0941ZM4.96306 62.2091C4.98162 61.9336 4.77332 61.6952 4.4978 61.6766C4.22228 61.6581 3.98388 61.8664 3.96532 62.1419L4.46419 62.1755L4.96306 62.2091ZM4.46722 56.2345C4.43874 56.5092 4.63831 56.7549 4.91298 56.7834C5.18764 56.8119 5.4334 56.6123 5.46189 56.3377L4.96455 56.2861L4.46722 56.2345ZM6.1965 50.4671C6.23695 50.194 6.04831 49.9397 5.77515 49.8993C5.50198 49.8588 5.24774 50.0475 5.20729 50.3206L5.70189 50.3939L6.1965 50.4671ZM6.22886 44.4626C6.17399 44.7332 6.34891 44.9971 6.61955 45.0519C6.89019 45.1068 7.15406 44.9319 7.20892 44.6612L6.71889 44.5619L6.22886 44.4626ZM8.55801 38.9323C8.63026 38.6658 8.47277 38.3912 8.20625 38.3189C7.93973 38.2467 7.6651 38.4042 7.59284 38.6707L8.07543 38.8015L8.55801 38.9323ZM9.37227 32.9796C9.27915 33.2396 9.41441 33.5258 9.67438 33.6189C9.93435 33.7121 10.2206 33.5768 10.3137 33.3168L9.84299 33.1482L9.37227 32.9796ZM12.5512 27.8808C12.6688 27.6309 12.5616 27.3331 12.3118 27.2155C12.0619 27.0979 11.7641 27.2051 11.6465 27.4549L12.0988 27.6678L12.5512 27.8808ZM14.4879 22.1933C14.3428 22.4283 14.4157 22.7364 14.6507 22.8814C14.8856 23.0265 15.1937 22.9536 15.3388 22.7186L14.9133 22.456L14.4879 22.1933ZM18.7194 17.9401C18.8931 17.7254 18.8599 17.4106 18.6452 17.2369C18.4305 17.0633 18.1156 17.0965 17.942 17.3112L18.3307 17.6257L18.7194 17.9401ZM22.009 12.9168C21.8083 13.1065 21.7995 13.423 21.9892 13.6236C22.1789 13.8243 22.4954 13.8331 22.696 13.6434L22.3525 13.2801L22.009 12.9168ZM27.2042 9.90497C27.4275 9.74251 27.4768 9.42979 27.3143 9.20649C27.1519 8.98319 26.8391 8.93388 26.6159 9.09634L26.91 9.50065L27.2042 9.90497ZM31.6468 5.86877C31.4065 6.00471 31.3218 6.30976 31.4577 6.55013C31.5937 6.79049 31.8987 6.87515 32.1391 6.73921L31.893 6.30399L31.6468 5.86877ZM37.3888 4.10344C37.6411 3.99104 37.7544 3.69545 37.642 3.44321C37.5296 3.19098 37.234 3.07763 36.9818 3.19002L37.1853 3.64673L37.3888 4.10344ZM42.5234 0.980184C42.2633 1.07298 42.1277 1.35905 42.2205 1.61913C42.3133 1.87921 42.5994 2.01483 42.8594 1.92203L42.6914 1.45111L42.5234 0.980184ZM4 77H4.5C4.5 75.9944 4.50558 75.0018 4.51675 74.0222L4.01679 74.0165L3.51682 74.0108C3.5056 74.9943 3.5 75.9907 3.5 77H4ZM4.15733 68.1126L4.65699 68.131C4.73205 66.0975 4.83405 64.1242 4.96306 62.2091L4.46419 62.1755L3.96532 62.1419C3.83559 64.0676 3.73308 66.051 3.65767 68.0941L4.15733 68.1126ZM4.96455 56.2861L5.46189 56.3377C5.67217 54.31 5.91702 52.3541 6.1965 50.4671L5.70189 50.3939L5.20729 50.3206C4.92554 52.2229 4.67892 54.1933 4.46722 56.2345L4.96455 56.2861ZM6.71889 44.5619L7.20892 44.6612C7.61321 42.6669 8.06288 40.7587 8.55801 38.9323L8.07543 38.8015L7.59284 38.6707C7.09171 40.5192 6.63715 42.4484 6.22886 44.4626L6.71889 44.5619ZM9.84299 33.1482L10.3137 33.3168C10.9988 31.4042 11.7446 29.5945 12.5512 27.8808L12.0988 27.6678L11.6465 27.4549C10.8254 29.1992 10.0675 31.0386 9.37227 32.9796L9.84299 33.1482ZM14.9133 22.456L15.3388 22.7186C16.3886 21.0182 17.5154 19.4286 18.7194 17.9401L18.3307 17.6257L17.942 17.3112C16.7107 18.8333 15.5595 20.4576 14.4879 22.1933L14.9133 22.456ZM22.3525 13.2801L22.696 13.6434C24.1136 12.3031 25.616 11.0604 27.2042 9.90497L26.91 9.50065L26.6159 9.09634C24.9944 10.276 23.4588 11.546 22.009 12.9168L22.3525 13.2801ZM31.893 6.30399L32.1391 6.73921C33.8102 5.79413 35.5598 4.91847 37.3888 4.10344L37.1853 3.64673L36.9818 3.19002C35.1262 4.01692 33.3479 4.90675 31.6468 5.86877L31.893 6.30399ZM42.6914 1.45111L42.8594 1.92203C43.7736 1.59584 44.7048 1.28079 45.653 0.976014L45.5 0.5L45.347 0.0239857C44.3892 0.331833 43.448 0.650265 42.5234 0.980184L42.6914 1.45111Z" fill="url(#paint0_linear_7552_28701)"/>
<defs>
<linearGradient id="paint0_linear_7552_28701" x1="4" y1="77.2711" x2="49.5131" y2="75.9109" gradientUnits="userSpaceOnUse">
<stop offset="0.629808" stop-color="#2758D4"/>
<stop offset="0.850962" stop-color="#A1C4FF"/>
<stop offset="1" stop-color="#A7D1FF" stop-opacity="0"/>
</linearGradient>
</defs>
</svg>
