<svg width="40" height="40" viewBox="0 0 40 40" fill="none" xmlns="http://www.w3.org/2000/svg">
<g clip-path="url(#clip0_7552_16517)">
<path d="M36.6784 14.0648H35.2352C34.8404 14.0648 34.8272 13.8063 34.8136 13.6777C34.0568 6.54755 28.0067 0.97403 20.6792 0.97403H19.3208C12.0475 0.97403 6.03278 6.46523 5.20401 13.5197C5.18285 13.7004 5.17177 14.0648 4.83937 14.0648H3.32153C2.32534 14.0648 0 15.1131 0 20.407V23.1852C0 27.1115 2.32534 28.0171 3.32153 28.0171H8.1506C9.14679 28.0171 9.96183 27.202 9.96183 26.2058V15.8761C9.96183 14.8799 9.14679 14.0648 8.1506 14.0648C8.1506 14.0648 7.92324 14.0449 7.98119 13.6399C8.77805 8.06461 13.5354 3.74412 19.3208 3.74412H20.6792C26.4252 3.74412 31.1954 8.00079 32.0029 13.5263C32.0289 13.7045 32.126 14.0648 31.8494 14.0648C30.8532 14.0648 30.0382 14.8799 30.0382 15.8761V26.2058C30.0382 27.202 30.8532 28.0171 31.8494 28.0171H32.7562C33.0055 28.0171 32.9632 28.2163 32.9409 28.3167C32.2022 31.6522 30.5435 35.4362 26.8206 35.4362H24.0629C23.7815 35.4362 23.712 35.23 23.6585 35.1323C23.2117 34.316 22.3454 33.7623 21.3493 33.7623H18.8084C17.3549 33.7623 16.1765 34.9406 16.1765 36.3942C16.1765 37.8477 17.3549 39.0258 18.8084 39.0258H21.3493C22.3589 39.0258 23.2354 38.4572 23.6766 37.6229C23.7152 37.55 23.7468 37.3984 24.0446 37.3984H26.8206C29.3493 37.3984 32.7334 36.1419 34.4944 30.1552C34.6821 29.5172 34.8343 28.8814 34.9583 28.2687C34.9754 28.1844 34.986 28.0172 35.2492 28.0172H36.6785C37.6747 28.0172 40 27.1115 40 23.1854V20.4071C39.9999 15.1885 37.6745 14.0648 36.6784 14.0648Z" fill="#537CE3"/>
</g>
<defs>
<clipPath id="clip0_7552_16517">
<rect width="40" height="40" fill="white"/>
</clipPath>
</defs>
</svg>
