<svg width="71" height="32" viewBox="0 0 71 32" fill="none" xmlns="http://www.w3.org/2000/svg">
<g clip-path="url(#clip0_0_17)">
<mask id="mask0_0_17" style="mask-type:luminance" maskUnits="userSpaceOnUse" x="0" y="0" width="71" height="32">
<path d="M70.8571 0H0V32H70.8571V0Z" fill="white"/>
</mask>
<g mask="url(#mask0_0_17)">
<mask id="mask1_0_17" style="mask-type:luminance" maskUnits="userSpaceOnUse" x="0" y="0" width="71" height="32">
<path d="M70.8571 0H0V32H70.8571V0Z" fill="white"/>
</mask>
<g mask="url(#mask1_0_17)">
<path fill-rule="evenodd" clip-rule="evenodd" d="M35.8176 0C37.5139 5.47873e-07 38.8839 0.0753825 39.9249 0.227466C40.9733 0.379514 41.7853 0.643915 42.3464 1.0313C42.9093 1.42002 43.2902 1.95305 43.4873 2.62458C43.6808 3.28275 43.7757 4.10743 43.7757 5.09447V5.54628C43.7757 6.4611 43.6655 7.25692 43.4411 7.93086L43.441 7.93078C43.2191 8.61192 42.7871 9.16486 42.1524 9.58821L42.1512 9.58891C41.5524 9.98116 40.694 10.2579 39.5886 10.4283L42.5239 16.0212C42.9112 16.7588 42.3764 17.6435 41.544 17.6435C41.1333 17.6435 40.7561 17.4155 40.5646 17.0515L40.5645 17.0513L37.1867 10.622C37.0623 10.6268 36.9333 10.6294 36.7995 10.6294H26.5282V14.6611L26.2559 14.2193L24.0886 10.7054L24.0667 10.6697V1.72445C24.0667 0.772067 24.8383 1.61651e-05 25.79 0H35.8176ZM42.4987 16.4262C42.4994 16.4313 42.4997 16.4364 42.5003 16.4415C42.4991 16.4302 42.4977 16.4187 42.4962 16.4074C42.497 16.4136 42.498 16.42 42.4987 16.4262ZM42.4895 16.3646C42.4916 16.3768 42.4936 16.3888 42.4953 16.401C42.4935 16.388 42.4914 16.3749 42.4888 16.3618C42.4889 16.3628 42.4892 16.3636 42.4895 16.3646ZM42.4786 16.315C42.4722 16.2884 42.4648 16.2618 42.4559 16.2355C42.46 16.2476 42.464 16.26 42.4675 16.2723C42.4705 16.2825 42.4732 16.2927 42.4759 16.303C42.4769 16.307 42.4777 16.3111 42.4786 16.315ZM35.9643 8.45992H26.5282V2.16957H35.3998C36.7453 2.16957 37.8172 2.19966 38.6172 2.25953L38.6179 2.2596H38.6186C39.4176 2.31189 40.001 2.43459 40.3814 2.61807C40.7532 2.79717 40.9958 3.07159 41.1184 3.4461C41.2468 3.83902 41.3143 4.38607 41.3143 5.09447V5.54628C41.3143 6.13342 41.2716 6.61202 41.1889 6.98528L41.1717 7.05858C41.0834 7.41953 40.8812 7.69609 40.5599 7.89447L40.5594 7.8949L40.5587 7.89524C40.2409 8.0958 39.7223 8.24698 38.9842 8.33654L38.844 8.35143C38.1277 8.4235 37.1686 8.45992 35.9643 8.45992ZM40.3404 8.17161L40.3727 8.15776C40.3804 8.15438 40.388 8.15098 40.3957 8.14758C40.391 8.14966 40.3863 8.15186 40.3817 8.15393L40.3727 8.15776C40.3621 8.16242 40.3512 8.16705 40.3404 8.17161ZM25.543 0.166622C25.5454 0.166264 25.5476 0.165872 25.5498 0.165522C25.5555 0.164675 25.561 0.163945 25.5666 0.163153C25.5588 0.164268 25.5508 0.165392 25.543 0.166622Z" fill="#0C0C0C"/>
<path fill-rule="evenodd" clip-rule="evenodd" d="M59.7877 0C61.1052 0 62.193 0.124821 63.0466 0.378857C63.916 0.62769 64.5689 1.07862 64.9905 1.73798C65.4186 2.38915 65.6239 3.29921 65.6239 4.45066C65.6239 5.49757 65.3815 6.37643 64.8857 7.07701C64.5332 7.57573 64.0501 7.91387 63.4454 8.0963C64.3321 8.31868 65.0127 8.74696 65.4723 9.39125C66.0583 10.2047 66.3461 11.2231 66.3461 12.4361C66.3461 13.4777 66.2251 14.3435 65.9762 15.0278C65.7328 15.7184 65.3187 16.2604 64.7343 16.6476L64.733 16.6485C64.1521 17.0253 63.3737 17.2824 62.406 17.4273C61.4478 17.572 60.2549 17.6435 58.8284 17.6435H47.3512C46.5078 17.6435 45.8245 16.9597 45.8245 16.1162V1.52736C45.8245 0.683778 46.5078 1.31219e-05 47.3512 0H59.7877ZM58.8284 15.5417H48.2865V9.33052H58.2418C59.0439 9.33052 59.7931 9.35305 60.4893 9.39799C61.1784 9.44248 61.7771 9.56074 62.2876 9.75051L62.2881 9.75078C62.795 9.93648 63.1826 10.2376 63.458 10.6539L63.4584 10.6544L63.4588 10.6551C63.7367 11.0659 63.8848 11.654 63.8848 12.4361C63.8848 13.2042 63.8063 13.795 63.6565 14.2165C63.5098 14.62 63.2594 14.91 62.9032 15.0952L62.902 15.0958C62.5435 15.2858 62.0352 15.4113 61.3683 15.4632H61.368C60.7035 15.5153 59.8574 15.5417 58.8284 15.5417ZM58.2418 7.22874H48.2865V2.10186H59.7877C60.6795 2.10186 61.3725 2.15066 61.8711 2.24598L61.9157 2.25504C62.3727 2.35139 62.6781 2.55548 62.8557 2.85433L62.8563 2.85543L62.857 2.85652C63.0535 3.17484 63.1625 3.69807 63.1625 4.45066C63.1625 5.38147 62.9932 6.014 62.6876 6.38472L62.6577 6.41975C62.3389 6.77875 61.8465 7.01025 61.1594 7.0974L61.0923 7.10545C60.3546 7.18744 59.4048 7.22874 58.2418 7.22874ZM62.9233 6.30703C62.9329 6.29133 62.9426 6.27533 62.9519 6.25904C62.9427 6.27507 62.9332 6.29089 62.9237 6.30637L62.9233 6.30703C62.9139 6.32225 62.9044 6.3372 62.8947 6.35189L62.9233 6.30703Z" fill="#0C0C0C"/>
<path d="M69.6267 0C70.306 0 70.8574 0.551384 70.8574 1.2316V16.4119C70.8574 17.0921 70.306 17.6435 69.6267 17.6435C68.9469 17.6435 68.3955 17.0921 68.3955 16.4119V1.2316C68.3955 0.551343 68.9469 5.84885e-06 69.6267 0Z" fill="#0C0C0C"/>
<path d="M1.23027 23.7675C1.34923 23.6657 1.47448 23.5809 1.60618 23.5137C1.78483 23.4226 1.97364 23.3586 2.17217 23.3216C2.36701 23.2851 2.5709 23.2671 2.78352 23.2671H4.07128C4.71269 23.2671 5.27741 23.3748 5.76192 23.5946L5.80857 23.6163C6.30578 23.8519 6.69215 24.2066 6.96456 24.6783C7.24142 25.1524 7.37559 25.7393 7.37559 26.432C7.37559 27.1242 7.24143 27.711 6.96482 28.1849C6.69239 28.6571 6.30599 29.0119 5.80857 29.2476C5.31379 29.482 4.7334 29.5967 4.07128 29.5967H2.78352C2.59747 29.5967 2.41814 29.583 2.24569 29.5551L2.17217 29.5423C1.98601 29.5077 1.80844 29.4492 1.63976 29.3669L1.60618 29.3502C1.47447 29.2831 1.34924 29.1981 1.23027 29.0965V32.0228H0V23.2671H1.23027V23.7675ZM18.6 27.1C18.6 27.4926 18.7232 27.7996 18.9626 28.0337C19.1953 28.258 19.5819 28.3844 20.1533 28.3844H21.9097C22.4851 28.3844 22.8711 28.2575 23.1004 28.0337L23.1225 28.0114C23.3474 27.7804 23.4631 27.4803 23.4631 27.1V23.2671H24.6981V29.5261C24.6981 30.0238 24.5842 30.464 24.3518 30.8416C24.1199 31.2181 23.7927 31.5094 23.3742 31.7154C22.9549 31.922 22.4654 32.0228 21.9097 32.0228H17.6111V30.8105H21.9097C22.4847 30.8105 22.8706 30.682 23.0999 30.4553L23.101 30.4542C23.3399 30.2237 23.4631 29.9187 23.4631 29.5261V29.0938C23.3457 29.1953 23.2207 29.281 23.088 29.3498L23.0871 29.3502C22.9085 29.4412 22.7196 29.5054 22.5211 29.5423C22.3262 29.5787 22.1224 29.5967 21.9097 29.5967H20.1533C19.6179 29.5967 19.1433 29.502 18.7331 29.3084L18.6935 29.2895C18.2881 29.0898 17.9684 28.8102 17.7381 28.4505L17.7161 28.4157C17.4837 28.0381 17.3698 27.5978 17.3698 27.1V23.2671H18.6V27.1ZM12.8461 23.2671C13.4015 23.2671 13.8907 23.3663 14.3099 23.5694C14.7269 23.7714 15.054 24.0521 15.2863 24.4124C15.5194 24.7708 15.6343 25.1833 15.6343 25.6454V29.5967H14.3994V29.0955C14.282 29.1981 14.1567 29.2832 14.0233 29.3501L14.0234 29.3502C13.8448 29.4412 13.656 29.5054 13.4575 29.5423C13.2626 29.5787 13.0587 29.5967 12.8461 29.5967H10.8481C10.4638 29.5967 10.1056 29.5347 9.77491 29.4091L9.7092 29.3831L9.70778 29.3826C9.38034 29.2439 9.1109 29.0404 8.90241 28.7722L8.86052 28.7163C8.64607 28.4117 8.54285 28.0392 8.54285 27.6071C8.54285 27.1721 8.64595 26.8005 8.86131 26.5015L8.86193 26.5006C9.07636 26.2077 9.3635 25.9894 9.71904 25.8451C10.0713 25.7021 10.4593 25.6315 10.8813 25.6315H14.3993C14.3959 25.3082 14.2771 25.0397 14.0391 24.8184C13.8064 24.6019 13.4189 24.4796 12.8461 24.4796H8.90737V23.2671H12.8461ZM2.78352 24.4796C2.21207 24.4796 1.82559 24.6077 1.59284 24.8351L1.59225 24.8355C1.35336 25.0662 1.23027 25.3712 1.23027 25.7638V27.1C1.23027 27.4926 1.3534 27.7996 1.59284 28.0337C1.82562 28.258 2.21215 28.3844 2.78352 28.3844H4.07128C4.78792 28.3844 5.30087 28.2139 5.63486 27.8962C5.9676 27.5796 6.14533 27.0952 6.14533 26.4177C6.14533 25.7502 5.96793 25.2732 5.63555 24.9612C5.30157 24.6478 4.78837 24.4796 4.07128 24.4796H2.78352ZM10.834 26.8439C10.4821 26.8439 10.223 26.9192 10.042 27.0544L10.0414 27.0548L10.0409 27.0553C9.86667 27.1827 9.77785 27.3608 9.77785 27.6071C9.77785 27.8574 9.86598 28.041 10.038 28.1744C10.217 28.3101 10.4623 28.3844 10.7867 28.3844H12.8461C13.4174 28.3844 13.804 28.258 14.0368 28.0337L14.0589 28.0114C14.2838 27.7804 14.3994 27.4803 14.3994 27.1V26.8439H10.834Z" fill="#4F97E5"/>
</g>
</g>
<g filter="url(#filter0_i_0_17)">
<path d="M16.3835 2.21861C15.5105 0.806076 14.0671 -0.00220106 12.4731 4.50199e-06H12.473C10.9041 7.44049e-05 9.48499 0.78334 8.60839 2.15501L8.56702 2.22082L0.199395 15.5558L0.197704 15.5584C-0.16668 16.1683 -0.0108927 16.9947 0.529521 17.3956L0.764455 17.5698V17.5208C1.31101 17.7457 1.92578 17.5352 2.28287 17.0015L2.28423 16.9995L2.28541 16.9976L10.6168 3.66208C11.0315 3.0016 11.7211 2.60113 12.4736 2.59694C13.2233 2.59709 13.8787 2.99558 14.333 3.6641L19.518 12H9.64724C8.97251 12 8.4372 12.5847 8.4372 13.2832C8.4372 14.016 8.97004 14.6012 9.64926 14.6012H20.9258C20.9999 14.5997 21.0686 14.6006 21.1502 14.5842L22.6716 16.9937C22.9143 17.3812 23.288 17.611 23.7143 17.611C23.9693 17.611 24.2187 17.5163 24.4172 17.388L24.4208 17.3857L24.4241 17.3832C24.9675 16.9866 25.1235 16.155 24.7586 15.5514L24.7572 15.5492L16.3835 2.21861Z" fill="url(#paint0_linear_0_17)"/>
</g>
</g>
<defs>
<filter id="filter0_i_0_17" x="0" y="0" width="25.0835" height="18.1188" filterUnits="userSpaceOnUse" color-interpolation-filters="sRGB">
<feFlood flood-opacity="0" result="BackgroundImageFix"/>
<feBlend mode="normal" in="SourceGraphic" in2="BackgroundImageFix" result="shape"/>
<feColorMatrix in="SourceAlpha" type="matrix" values="0 0 0 0 0 0 0 0 0 0 0 0 0 0 0 0 0 0 127 0" result="hardAlpha"/>
<feOffset dx="0.126984" dy="0.507936"/>
<feGaussianBlur stdDeviation="0.253968"/>
<feComposite in2="hardAlpha" operator="arithmetic" k2="-1" k3="1"/>
<feColorMatrix type="matrix" values="0 0 0 0 1 0 0 0 0 1 0 0 0 0 1 0 0 0 0.5 0"/>
<feBlend mode="normal" in2="shape" result="effect1_innerShadow_0_17"/>
</filter>
<linearGradient id="paint0_linear_0_17" x1="12.4782" y1="0" x2="12.4782" y2="17.611" gradientUnits="userSpaceOnUse">
<stop stop-color="#4F97E5"/>
<stop offset="1" stop-color="#19518E"/>
</linearGradient>
<clipPath id="clip0_0_17">
<rect width="70.8571" height="32" fill="white"/>
</clipPath>
</defs>
</svg>
