<svg width="160" height="72" viewBox="0 0 160 72" fill="none" xmlns="http://www.w3.org/2000/svg">
<g clip-path="url(#clip0_5301_14288)">
<mask id="mask0_5301_14288" style="mask-type:luminance" maskUnits="userSpaceOnUse" x="0" y="0" width="160" height="72">
<path d="M159.429 0H0V72H159.429V0Z" fill="white"/>
</mask>
<g mask="url(#mask0_5301_14288)">
<mask id="mask1_5301_14288" style="mask-type:luminance" maskUnits="userSpaceOnUse" x="0" y="0" width="160" height="72">
<path d="M159.429 0H0V72H159.429V0Z" fill="white"/>
</mask>
<g mask="url(#mask1_5301_14288)">
<path fill-rule="evenodd" clip-rule="evenodd" d="M80.5895 0C84.4063 1.23271e-06 87.4886 0.169611 89.831 0.511799C92.1899 0.853907 94.0169 1.44881 95.2793 2.32041C96.5458 3.19505 97.4029 4.39436 97.8464 5.90531C98.2816 7.38618 98.4953 9.24171 98.4953 11.4626V12.4791C98.4953 14.5375 98.2472 16.3281 97.7425 17.8444L97.7421 17.8442C97.2428 19.3768 96.2709 20.6209 94.8428 21.5735L94.8402 21.5751C93.4927 22.4576 91.5614 23.0803 89.0743 23.4636L95.6788 36.0478C96.5502 37.7073 95.3469 39.6978 93.4739 39.6978C92.5499 39.6978 91.7011 39.1849 91.2703 38.3658L91.27 38.3655L83.67 23.8994C83.3901 23.9104 83.0999 23.9162 82.7989 23.9162H59.6884V32.9875L59.0756 31.9935L54.1993 24.0871L54.1499 24.0069V3.88C54.1499 1.73715 55.8861 3.63715e-05 58.0275 0H80.5895ZM95.6221 36.9589C95.6237 36.9704 95.6243 36.9819 95.6256 36.9933C95.623 36.9679 95.6198 36.9421 95.6163 36.9166C95.6182 36.9306 95.6205 36.9449 95.6221 36.9589ZM95.6013 36.8204C95.6061 36.8478 95.6106 36.8748 95.6144 36.9022C95.6103 36.8729 95.6055 36.8436 95.5997 36.814C95.6001 36.8162 95.6007 36.8181 95.6013 36.8204ZM95.5768 36.7089C95.5624 36.649 95.5459 36.5891 95.5258 36.5298C95.535 36.5572 95.5439 36.5849 95.5519 36.6126C95.5586 36.6356 95.5647 36.6585 95.5707 36.6818C95.573 36.6907 95.5749 36.6999 95.5768 36.7089ZM80.9196 19.0348H59.6884V4.88154H79.6495C82.6768 4.88154 85.0886 4.94924 86.8886 5.08393L86.8902 5.08409H86.8918C88.6895 5.20175 90.0022 5.47783 90.858 5.89065C91.6947 6.29363 92.2406 6.91108 92.5164 7.75373C92.8053 8.6378 92.9571 9.86865 92.9571 11.4626V12.4791C92.9571 13.8002 92.8611 14.877 92.6749 15.7169L92.6363 15.8818C92.4376 16.6939 91.9826 17.3162 91.2598 17.7626L91.2585 17.7635L91.2569 17.7643C90.542 18.2156 89.375 18.5557 87.7144 18.7572L87.3991 18.7907C85.7872 18.9529 83.6292 19.0348 80.9196 19.0348ZM90.7659 18.3861L90.8386 18.355C90.8558 18.3474 90.873 18.3397 90.8902 18.3321C90.8797 18.3367 90.8692 18.3417 90.8587 18.3463L90.8386 18.355C90.8146 18.3654 90.7901 18.3759 90.7659 18.3861ZM57.4718 0.3749C57.4772 0.374094 57.482 0.373212 57.4871 0.372425C57.4998 0.37052 57.5123 0.368876 57.5247 0.367095C57.5071 0.369602 57.4893 0.372132 57.4718 0.3749Z" fill="#0C0C0C"/>
<path fill-rule="evenodd" clip-rule="evenodd" d="M134.522 0C137.487 0 139.934 0.280848 141.855 0.852429C143.811 1.4123 145.28 2.4269 146.229 3.91046C147.192 5.3756 147.654 7.42323 147.654 10.014C147.654 12.3695 147.108 14.347 145.993 15.9233C145.2 17.0454 144.113 17.8062 142.752 18.2167C144.747 18.717 146.279 19.6807 147.313 21.1303C148.631 22.9606 149.279 25.2519 149.279 27.9813C149.279 30.3248 149.006 32.2729 148.446 33.8126C147.899 35.3663 146.967 36.5859 145.652 37.4572L145.649 37.4591C144.342 38.3069 142.591 38.8854 140.414 39.2113C138.257 39.5369 135.574 39.6978 132.364 39.6978H106.54C104.643 39.6978 103.105 38.1594 103.105 36.2616V3.43657C103.105 1.5385 104.643 2.95242e-05 106.54 0H134.522ZM132.364 34.9687H108.644V20.9937H131.044C132.849 20.9937 134.534 21.0444 136.101 21.1455C137.651 21.2456 138.998 21.5117 140.147 21.9387L140.148 21.9393C141.289 22.3571 142.161 23.0346 142.78 23.9712L142.781 23.9724L142.782 23.974C143.408 24.8982 143.741 26.2216 143.741 27.9813C143.741 29.7095 143.564 31.0388 143.227 31.9871C142.897 32.8951 142.334 33.5475 141.532 33.9642L141.53 33.9655C140.723 34.3931 139.579 34.6753 138.079 34.7922H138.078C136.583 34.9095 134.679 34.9687 132.364 34.9687ZM131.044 16.2647H108.644V4.72919H134.522C136.529 4.72919 138.088 4.83897 139.21 5.05344L139.31 5.07383C140.339 5.29063 141.026 5.74984 141.425 6.42224L141.427 6.42473L141.428 6.42718C141.87 7.14339 142.116 8.32065 142.116 10.014C142.116 12.1083 141.735 13.5315 141.047 14.3656L140.98 14.4444C140.262 15.2522 139.155 15.7731 137.609 15.9692L137.458 15.9873C135.798 16.1717 133.661 16.2647 131.044 16.2647ZM141.577 14.1908C141.599 14.1555 141.621 14.1195 141.642 14.0828C141.621 14.1189 141.6 14.1545 141.578 14.1893L141.577 14.1908C141.556 14.2251 141.535 14.2587 141.513 14.2917L141.577 14.1908Z" fill="#0C0C0C"/>
<path d="M156.66 0C158.188 0 159.429 1.24061 159.429 2.7711V36.9268C159.429 38.4572 158.188 39.6978 156.66 39.6978C155.131 39.6978 153.89 38.4572 153.89 36.9268V2.7711C153.89 1.24052 155.131 1.31599e-05 156.66 0Z" fill="#0C0C0C"/>
<path d="M2.7681 53.4773C3.03578 53.2482 3.31758 53.0574 3.61389 52.9063C4.01588 52.7012 4.44069 52.5572 4.88738 52.474C5.32578 52.3918 5.78451 52.3514 6.26293 52.3514H9.16038C10.6036 52.3514 11.8742 52.5938 12.9643 53.0883L13.0693 53.137C14.188 53.6671 15.0573 54.4652 15.6703 55.5267C16.2932 56.5933 16.5951 57.9139 16.5951 59.4724C16.5951 61.0299 16.2932 62.3501 15.6708 63.4164C15.0579 64.4789 14.1885 65.2773 13.0693 65.8074C11.956 66.335 10.6501 66.593 9.16038 66.593H6.26293C5.8443 66.593 5.44082 66.5621 5.0528 66.4994L4.88738 66.4707C4.46853 66.3927 4.069 66.2611 3.68946 66.076L3.61389 66.0384C3.31755 65.8874 3.0358 65.6962 2.7681 65.4675V72.0517H0V52.3514H2.7681V53.4773ZM41.85 60.9754C41.85 61.8589 42.1271 62.5496 42.666 63.0762C43.1895 63.5808 44.0594 63.8653 45.345 63.8653H49.2969C50.5915 63.8653 51.46 63.5799 51.9759 63.0762L52.0257 63.0262C52.5317 62.5062 52.7919 61.8312 52.7919 60.9754V52.3514H55.5707V66.4341C55.5707 67.5539 55.3144 68.5444 54.7915 69.394C54.2698 70.2411 53.5336 70.8965 52.592 71.36C51.6485 71.8248 50.5471 72.0517 49.2969 72.0517H39.625V69.3239H49.2969C50.5905 69.3239 51.4588 69.035 51.9747 68.5249L51.9772 68.5224C52.5148 68.0037 52.7919 67.3175 52.7919 66.4341V65.4614C52.5279 65.6899 52.2467 65.8826 51.9479 66.0374L51.946 66.0384C51.5442 66.2432 51.1192 66.3876 50.6725 66.4707C50.234 66.5526 49.7755 66.593 49.2969 66.593H45.345C44.1404 66.593 43.0725 66.3799 42.1494 65.9444L42.0604 65.9017C41.1482 65.4525 40.4289 64.8233 39.9107 64.0141L39.8613 63.9357C39.3384 63.0861 39.082 62.0956 39.082 60.9754V52.3514H41.85V60.9754ZM28.9038 52.3514C30.1533 52.3514 31.254 52.5747 32.1972 53.0316C33.1356 53.4862 33.8716 54.1176 34.3942 54.9284C34.9187 55.7347 35.1773 56.6628 35.1773 57.7026V66.593H32.3988V65.4653C32.1344 65.6962 31.8526 65.8877 31.5525 66.0381L31.5527 66.0384C31.1507 66.2432 30.7261 66.3876 30.2793 66.4707C29.8409 66.5526 29.3821 66.593 28.9038 66.593H24.4083C23.5436 66.593 22.7377 66.4535 21.9936 66.1709L21.8457 66.1123L21.8425 66.1113C21.1058 65.7991 20.4995 65.3413 20.0304 64.7379L19.9362 64.6121C19.4537 63.9268 19.2214 63.0886 19.2214 62.1163C19.2214 61.1376 19.4534 60.3016 19.9379 59.6288L19.9393 59.6269C20.4218 58.9677 21.0679 58.4765 21.8678 58.1518C22.6604 57.8301 23.5334 57.6714 24.483 57.6714H32.3984C32.3908 56.9438 32.1236 56.3397 31.588 55.8418C31.0645 55.3547 30.1926 55.0794 28.9038 55.0794H20.0416V52.3514H28.9038ZM6.26293 55.0794C4.97717 55.0794 4.10758 55.3677 3.58389 55.8794L3.58255 55.8803C3.04507 56.3993 2.7681 57.0855 2.7681 57.969V60.9754C2.7681 61.8589 3.04515 62.5496 3.58389 63.0762C4.10765 63.5808 4.97733 63.8653 6.26293 63.8653H9.16038C10.7728 63.8653 11.9269 63.4817 12.6784 62.7668C13.4271 62.0545 13.827 60.9646 13.827 59.4402C13.827 57.9384 13.4278 56.8651 12.68 56.1632C11.9285 55.4579 10.7738 55.0794 9.16038 55.0794H6.26293ZM24.3764 60.3991C23.5847 60.3991 23.0017 60.5686 22.5944 60.8729L22.5932 60.8738L22.592 60.8748C22.2 61.1615 22.0002 61.5623 22.0002 62.1163C22.0002 62.6796 22.1985 63.0928 22.5854 63.3929C22.9882 63.6981 23.5402 63.8653 24.27 63.8653H28.9038C30.1892 63.8653 31.0591 63.5808 31.5828 63.0762L31.6326 63.0262C32.1386 62.5062 32.3988 61.8312 32.3988 60.9754V60.3991H24.3764Z" fill="#4F97E5"/>
</g>
</g>
<g filter="url(#filter0_i_5301_14288)">
<path d="M36.8629 4.99152C34.8986 1.8133 31.6509 -0.00531859 28.0646 -0.000356081H28.0642C24.5342 -0.0001988 21.3412 1.76215 19.3689 4.84841L19.2758 4.99647L0.448639 35.0001L0.444834 35.006C-0.37503 36.3782 -0.0245085 38.2376 1.19142 39.1397L1.72002 39.5318V39.4214C2.94977 39.9274 4.33301 39.4537 5.13646 38.2529L5.13951 38.2485L5.14217 38.2442L23.8877 8.23931C24.8209 6.75324 26.3725 5.85217 28.0656 5.84276C29.7525 5.84308 31.227 6.73969 32.2492 8.24387L43.9154 26.9996H21.7063C20.1881 26.9996 18.9837 28.3152 18.9837 29.8869C18.9837 31.5357 20.1826 32.8524 21.7108 32.8524H47.083C47.2498 32.8491 47.4044 32.851 47.5878 32.8142L51.011 38.2355C51.5571 39.1074 52.3981 39.6243 53.3572 39.6243C53.9309 39.6243 54.4921 39.4113 54.9388 39.1227L54.9467 39.1175L54.9543 39.1118C56.177 38.2194 56.5279 36.3483 55.7068 34.9902L55.7036 34.9852L36.8629 4.99152Z" fill="url(#paint0_linear_5301_14288)"/>
</g>
</g>
<defs>
<filter id="filter0_i_5301_14288" x="0" y="-0.000366211" width="56.4378" height="40.7676" filterUnits="userSpaceOnUse" color-interpolation-filters="sRGB">
<feFlood flood-opacity="0" result="BackgroundImageFix"/>
<feBlend mode="normal" in="SourceGraphic" in2="BackgroundImageFix" result="shape"/>
<feColorMatrix in="SourceAlpha" type="matrix" values="0 0 0 0 0 0 0 0 0 0 0 0 0 0 0 0 0 0 127 0" result="hardAlpha"/>
<feOffset dx="0.285714" dy="1.14286"/>
<feGaussianBlur stdDeviation="0.571429"/>
<feComposite in2="hardAlpha" operator="arithmetic" k2="-1" k3="1"/>
<feColorMatrix type="matrix" values="0 0 0 0 1 0 0 0 0 1 0 0 0 0 1 0 0 0 0.5 0"/>
<feBlend mode="normal" in2="shape" result="effect1_innerShadow_5301_14288"/>
</filter>
<linearGradient id="paint0_linear_5301_14288" x1="28.0761" y1="-0.000366211" x2="28.0761" y2="39.6243" gradientUnits="userSpaceOnUse">
<stop stop-color="#4F97E5"/>
<stop offset="1" stop-color="#19518E"/>
</linearGradient>
<clipPath id="clip0_5301_14288">
<rect width="159.429" height="72" fill="white"/>
</clipPath>
</defs>
</svg>
