<svg width="121" height="73" viewBox="0 0 121 73" fill="none" xmlns="http://www.w3.org/2000/svg">
<g filter="url(#filter0_d_5102_9088)">
<rect x="6" y="4" width="109" height="61" rx="10" fill="white" fill-opacity="0.5" shape-rendering="crispEdges"/>
<g clip-path="url(#clip0_5102_9088)">
<mask id="mask0_5102_9088" style="mask-type:luminance" maskUnits="userSpaceOnUse" x="16" y="14" width="90" height="41">
<path d="M105.071 14.5H16.5V54.5H105.071V14.5Z" fill="white"/>
</mask>
<g mask="url(#mask0_5102_9088)">
<mask id="mask1_5102_9088" style="mask-type:luminance" maskUnits="userSpaceOnUse" x="16" y="14" width="90" height="41">
<path d="M105.071 14.5H16.5V54.5H105.071V14.5Z" fill="white"/>
</mask>
<g mask="url(#mask1_5102_9088)">
<path fill-rule="evenodd" clip-rule="evenodd" d="M61.2719 14.5C63.3923 14.5 65.1048 14.5942 66.4061 14.7843C67.7166 14.9744 68.7316 15.3049 69.4329 15.7891C70.1365 16.275 70.6127 16.9413 70.8591 17.7807C71.1009 18.6034 71.2196 19.6343 71.2196 20.8681V21.4329C71.2196 22.5764 71.0818 23.5712 70.8013 24.4136L70.8012 24.4135C70.5238 25.2649 69.9838 25.9561 69.1904 26.4853L69.189 26.4861C68.4404 26.9764 67.3674 27.3224 65.9857 27.5353L69.6549 34.5266C70.139 35.4485 69.4705 36.5543 68.4299 36.5543C67.9166 36.5543 67.445 36.2694 67.2057 35.8143L67.2055 35.8142L62.9833 27.7775C62.8278 27.7835 62.6666 27.7868 62.4994 27.7868H49.6602V32.8264L49.3198 32.2742L46.6107 27.8817L46.5833 27.8372V16.6556C46.5833 15.4651 47.5478 14.5 48.7375 14.5H61.2719ZM69.6233 35.0327C69.6242 35.0391 69.6246 35.0455 69.6253 35.0519C69.6239 35.0377 69.6221 35.0234 69.6201 35.0092C69.6212 35.017 69.6225 35.025 69.6233 35.0327ZM69.6118 34.9558C69.6145 34.971 69.617 34.986 69.6191 35.0012C69.6168 34.985 69.6141 34.9687 69.6109 34.9522C69.6111 34.9535 69.6115 34.9545 69.6118 34.9558ZM69.5982 34.8938C69.5902 34.8605 69.581 34.8273 69.5698 34.7943C69.575 34.8096 69.5799 34.825 69.5844 34.8404C69.5881 34.8531 69.5914 34.8658 69.5948 34.8788C69.5961 34.8837 69.5971 34.8889 69.5982 34.8938ZM61.4553 25.0749H49.6602V17.212H60.7497C62.4315 17.212 63.7714 17.2496 64.7714 17.3244L64.7723 17.3245H64.7732C65.7719 17.3899 66.5012 17.5432 66.9766 17.7726C67.4415 17.9965 67.7447 18.3395 67.898 18.8076C68.0585 19.2988 68.1428 19.9826 68.1428 20.8681V21.4329C68.1428 22.1668 68.0895 22.765 67.986 23.2316L67.9646 23.3232C67.8542 23.7744 67.6014 24.1201 67.1998 24.3681L67.1991 24.3686L67.1983 24.369C66.8011 24.6198 66.1528 24.8087 65.2302 24.9207L65.055 24.9393C64.1595 25.0294 62.9606 25.0749 61.4553 25.0749ZM66.9255 24.7145L66.9658 24.6972C66.9754 24.693 66.985 24.6887 66.9945 24.6845C66.9887 24.6871 66.9828 24.6898 66.977 24.6924L66.9658 24.6972C66.9526 24.703 66.9389 24.7088 66.9255 24.7145ZM48.4287 14.7083C48.4317 14.7078 48.4344 14.7073 48.4372 14.7069C48.4443 14.7058 48.4512 14.7049 48.4581 14.7039C48.4484 14.7053 48.4385 14.7067 48.4287 14.7083Z" fill="#0C0C0C"/>
<path fill-rule="evenodd" clip-rule="evenodd" d="M91.2346 14.5C92.8815 14.5 94.2412 14.656 95.3082 14.9736C96.3949 15.2846 97.211 15.8483 97.738 16.6725C98.2732 17.4864 98.5299 18.624 98.5299 20.0633C98.5299 21.372 98.2268 22.4705 97.6071 23.3463C97.1664 23.9697 96.5625 24.3923 95.8066 24.6204C96.915 24.8984 97.7658 25.4337 98.3403 26.2391C99.0728 27.2559 99.4326 28.5288 99.4326 30.0452C99.4326 31.3471 99.2813 32.4294 98.9702 33.2848C98.6659 34.148 98.1483 34.8255 97.4178 35.3096L97.4162 35.3106C96.6901 35.7816 95.717 36.103 94.5075 36.2841C93.3096 36.465 91.8186 36.5543 90.0355 36.5543H75.6889C74.6347 36.5543 73.7805 35.6996 73.7805 34.6453V16.4092C73.7805 15.3547 74.6347 14.5 75.6889 14.5H91.2346ZM90.0355 33.9271H76.858V26.1632H89.3021C90.3048 26.1632 91.2413 26.1913 92.1116 26.2475C92.9729 26.3031 93.7213 26.4509 94.3594 26.6881L94.3601 26.6885C94.9937 26.9206 95.4782 27.297 95.8224 27.8173L95.8229 27.818L95.8235 27.8189C96.1708 28.3324 96.356 29.0675 96.356 30.0452C96.356 31.0053 96.2578 31.7438 96.0706 32.2706C95.8872 32.775 95.5742 33.1375 95.1289 33.369L95.1275 33.3697C94.6793 33.6073 94.0439 33.7641 93.2103 33.829H93.2099C92.3793 33.8942 91.3217 33.9271 90.0355 33.9271ZM89.3021 23.5359H76.858V17.1273H91.2346C92.3493 17.1273 93.2156 17.1883 93.8388 17.3075L93.8946 17.3188C94.4658 17.4392 94.8476 17.6944 95.0695 18.0679L95.0703 18.0693L95.0711 18.0707C95.3168 18.4685 95.4531 19.1226 95.4531 20.0633C95.4531 21.2268 95.2414 22.0175 94.8595 22.4809L94.8221 22.5247C94.4235 22.9734 93.8081 23.2628 92.9491 23.3718L92.8654 23.3818C91.9432 23.4843 90.7559 23.5359 89.3021 23.5359ZM95.154 22.3838C95.1661 22.3642 95.1781 22.3442 95.1898 22.3238C95.1783 22.3438 95.1664 22.3636 95.1546 22.383L95.154 22.3838C95.1424 22.4028 95.1305 22.4215 95.1183 22.4399L95.154 22.3838Z" fill="#0C0C0C"/>
<path d="M103.534 14.5C104.383 14.5 105.072 15.1892 105.072 16.0395V35.0149C105.072 35.8651 104.383 36.5543 103.534 36.5543C102.684 36.5543 101.995 35.8651 101.995 35.0149V16.0395C101.995 15.1892 102.684 14.5 103.534 14.5Z" fill="#0C0C0C"/>
<path d="M18.0378 44.2095C18.1865 44.0822 18.3431 43.9762 18.5077 43.8923C18.731 43.7783 18.9671 43.6983 19.2152 43.6521C19.4588 43.6065 19.7136 43.584 19.9794 43.584H21.5891C22.3909 43.584 23.0968 43.7187 23.7024 43.9934L23.7607 44.0204C24.3822 44.315 24.8652 44.7583 25.2057 45.3481C25.5518 45.9406 25.7195 46.6742 25.7195 47.5401C25.7195 48.4054 25.5518 49.1389 25.206 49.7312C24.8655 50.3215 24.3825 50.765 23.7607 51.0596C23.1422 51.3527 22.4167 51.496 21.5891 51.496H19.9794C19.7468 51.496 19.5227 51.4789 19.3071 51.444L19.2152 51.4281C18.9825 51.3847 18.7606 51.3116 18.5497 51.2088L18.5077 51.1879C18.3431 51.104 18.1866 50.9978 18.0378 50.8707V54.5286H16.5V43.584H18.0378V44.2095ZM39.75 48.3751C39.75 48.8659 39.9039 49.2496 40.2033 49.5422C40.4942 49.8226 40.9774 49.9806 41.6917 49.9806H43.8872C44.6064 49.9806 45.0889 49.822 45.3755 49.5422L45.4032 49.5144C45.6843 49.2256 45.8288 48.8505 45.8288 48.3751V43.584H47.3726V51.4077C47.3726 52.0298 47.2302 52.5801 46.9397 53.0521C46.6499 53.5227 46.2409 53.8868 45.7178 54.1443C45.1936 54.4026 44.5817 54.5286 43.8872 54.5286H38.5139V53.0132H43.8872C44.6058 53.0132 45.0882 52.8527 45.3748 52.5693L45.3762 52.5679C45.6749 52.2797 45.8288 51.8985 45.8288 51.4077V50.8673C45.6822 50.9943 45.5259 51.1013 45.3599 51.1873L45.3589 51.1879C45.1357 51.3017 44.8995 51.3819 44.6514 51.4281C44.4078 51.4735 44.1531 51.496 43.8872 51.496H41.6917C41.0224 51.496 40.4292 51.3776 39.9163 51.1357L39.8669 51.1119C39.3601 50.8624 38.9605 50.5128 38.6726 50.0633L38.6452 50.0197C38.3546 49.5477 38.2122 48.9974 38.2122 48.3751V43.584H39.75V48.3751ZM32.5577 43.584C33.2519 43.584 33.8633 43.7081 34.3874 43.9619C34.9087 44.2144 35.3175 44.5652 35.6079 45.0157C35.8993 45.4636 36.0429 45.9792 36.0429 46.5569V51.496H34.4993V50.8695C34.3525 50.9978 34.1959 51.1042 34.0292 51.1877L34.0293 51.1879C33.806 51.3017 33.57 51.3819 33.3218 51.4281C33.0783 51.4735 32.8234 51.496 32.5577 51.496H30.0602C29.5798 51.496 29.1321 51.4185 28.7186 51.2615L28.6365 51.2289L28.6347 51.2284C28.2254 51.055 27.8886 50.8006 27.628 50.4654L27.5756 50.3955C27.3076 50.0148 27.1786 49.5491 27.1786 49.0089C27.1786 48.4652 27.3074 48.0008 27.5766 47.627L27.5774 47.6259C27.8455 47.2597 28.2044 46.9868 28.6488 46.8065C29.0891 46.6277 29.5741 46.5396 30.1017 46.5396H34.4991C34.4949 46.1353 34.3464 45.7997 34.0489 45.5231C33.758 45.2525 33.2737 45.0996 32.5577 45.0996H27.6342V43.584H32.5577ZM19.9794 45.0996C19.2651 45.0996 18.782 45.2597 18.4911 45.544L18.4903 45.5445C18.1917 45.8328 18.0378 46.2141 18.0378 46.7049V48.3751C18.0378 48.8659 18.1917 49.2496 18.4911 49.5422C18.782 49.8226 19.2652 49.9806 19.9794 49.9806H21.5891C22.4849 49.9806 23.1261 49.7675 23.5436 49.3704C23.9595 48.9746 24.1817 48.3691 24.1817 47.5222C24.1817 46.6879 23.9599 46.0916 23.5444 45.7017C23.127 45.3098 22.4855 45.0996 21.5891 45.0996H19.9794ZM30.0425 48.055C29.6026 48.055 29.2787 48.1491 29.0525 48.3181L29.0518 48.3187L29.0511 48.3192C28.8333 48.4785 28.7223 48.7012 28.7223 49.0089C28.7223 49.3219 28.8325 49.5514 29.0475 49.7181C29.2712 49.8877 29.5779 49.9806 29.9833 49.9806H32.5577C33.2718 49.9806 33.755 49.8226 34.046 49.5422L34.0737 49.5144C34.3548 49.2256 34.4993 48.8505 34.4993 48.3751V48.055H30.0425Z" fill="#4F97E5"/>
</g>
</g>
<g filter="url(#filter1_i_5102_9088)">
<path d="M36.9794 17.2733C35.8881 15.5076 34.0839 14.4972 32.0914 14.5H32.0912C30.1301 14.5001 28.3562 15.4792 27.2605 17.1938L27.2088 17.276L16.7492 33.9447L16.7471 33.948C16.2917 34.7103 16.4864 35.7433 17.1619 36.2445L17.4556 36.4623V36.401C18.1388 36.6821 18.9072 36.4189 19.3536 35.7518L19.3553 35.7494L19.3568 35.747L29.771 19.0776C30.2894 18.252 31.1514 17.7514 32.092 17.7462C33.0291 17.7464 33.8483 18.2445 34.4162 19.0801L40.8975 29.5H28.559C27.7156 29.5 27.0465 30.2309 27.0465 31.104C27.0465 32.02 27.7125 32.7516 28.5616 32.7516H42.6572C42.7499 32.7497 42.8358 32.7508 42.9377 32.7303L44.8394 35.7421C45.1428 36.2265 45.61 36.5137 46.1429 36.5137C46.4616 36.5137 46.7734 36.3954 47.0216 36.235L47.026 36.2322L47.0302 36.229C47.7094 35.7332 47.9044 34.6937 47.4482 33.9392L47.4465 33.9364L36.9794 17.2733Z" fill="url(#paint0_linear_5102_9088)"/>
</g>
</g>
</g>
<defs>
<filter id="filter0_d_5102_9088" x="0" y="0" width="121" height="73" filterUnits="userSpaceOnUse" color-interpolation-filters="sRGB">
<feFlood flood-opacity="0" result="BackgroundImageFix"/>
<feColorMatrix in="SourceAlpha" type="matrix" values="0 0 0 0 0 0 0 0 0 0 0 0 0 0 0 0 0 0 127 0" result="hardAlpha"/>
<feOffset dy="2"/>
<feGaussianBlur stdDeviation="3"/>
<feComposite in2="hardAlpha" operator="out"/>
<feColorMatrix type="matrix" values="0 0 0 0 0.0266259 0 0 0 0 0.0266259 0 0 0 0 0.209792 0 0 0 0.2 0"/>
<feBlend mode="normal" in2="BackgroundImageFix" result="effect1_dropShadow_5102_9088"/>
<feBlend mode="normal" in="BackgroundImageFix" in2="effect1_dropShadow_5102_9088" result="BackgroundImageFix"/>
<feBlend mode="normal" in="SourceGraphic" in2="BackgroundImageFix" result="shape"/>
</filter>
<filter id="filter1_i_5102_9088" x="16.5" y="14.5" width="31.3543" height="22.6486" filterUnits="userSpaceOnUse" color-interpolation-filters="sRGB">
<feFlood flood-opacity="0" result="BackgroundImageFix"/>
<feBlend mode="normal" in="SourceGraphic" in2="BackgroundImageFix" result="shape"/>
<feColorMatrix in="SourceAlpha" type="matrix" values="0 0 0 0 0 0 0 0 0 0 0 0 0 0 0 0 0 0 127 0" result="hardAlpha"/>
<feOffset dx="0.15873" dy="0.634921"/>
<feGaussianBlur stdDeviation="0.31746"/>
<feComposite in2="hardAlpha" operator="arithmetic" k2="-1" k3="1"/>
<feColorMatrix type="matrix" values="0 0 0 0 1 0 0 0 0 1 0 0 0 0 1 0 0 0 0.5 0"/>
<feBlend mode="normal" in2="shape" result="effect1_innerShadow_5102_9088"/>
</filter>
<linearGradient id="paint0_linear_5102_9088" x1="32.0978" y1="14.5" x2="32.0978" y2="36.5137" gradientUnits="userSpaceOnUse">
<stop stop-color="#4F97E5"/>
<stop offset="1" stop-color="#205996"/>
</linearGradient>
<clipPath id="clip0_5102_9088">
<rect width="88.5714" height="40" fill="white" transform="translate(16.5 14.5)"/>
</clipPath>
</defs>
</svg>
