<svg width="24" height="24" viewBox="0 0 24 24" fill="none" xmlns="http://www.w3.org/2000/svg">
<g clip-path="url(#clip0_5102_9156)">
<path d="M0 12C0 5.37258 5.37258 0 12 0C18.6274 0 24 5.37258 24 12C24 18.6274 18.6274 24 12 24C5.37258 24 0 18.6274 0 12Z" fill="white"/>
<g clip-path="url(#clip1_5102_9156)">
<path d="M-2 -0.00244141H30V24.0026H-2V-0.00244141Z" fill="#CC0001"/>
<path d="M-2 22.2881H30V24.0027H-2V22.2881Z" fill="white"/>
<path d="M-2 18.8584H30V20.573H-2V18.8584Z" fill="white"/>
<path d="M-2 15.4292H30V17.1438H-2V15.4292Z" fill="white"/>
<path d="M-2 12H30V13.7146H-2V12Z" fill="white"/>
<path d="M-2 8.5708H30V10.2855H-2V8.5708Z" fill="white"/>
<path d="M-2 5.14111H30V6.85576H-2V5.14111Z" fill="white"/>
<path d="M-2 1.71191H30V3.42656H-2V1.71191Z" fill="white"/>
<path d="M-2 -0.00244141H22.005V13.7147H-2V-0.00244141Z" fill="#1249D6"/>
<path d="M10.8763 1.71191C8.02751 1.71191 5.71521 4.01641 5.71521 6.85581C5.71521 9.69521 8.02746 11.9998 10.8763 11.9998C11.9056 11.9998 12.8645 11.6986 13.6699 11.1805C13.1885 11.3466 12.6827 11.4312 12.1734 11.4308C9.64741 11.4308 7.59716 9.38751 7.59716 6.86981C7.59716 4.35201 9.64736 2.30866 12.1735 2.30866C12.7318 2.30866 13.2666 2.40836 13.7613 2.59101C12.9376 2.03621 11.9446 1.71201 10.8763 1.71201V1.71191Z" fill="#FFCC00"/>
<path d="M19.4353 9.53374L17.2613 8.39944L17.904 10.7209L16.45 8.77884L15.9963 11.1424L15.5502 8.77754L14.0899 10.715L14.74 8.39554L12.5624 9.52329L14.1801 7.70869L11.7164 7.80329L13.9812 6.85279L11.7195 5.89554L14.1828 5.99754L12.5709 4.17804L14.7449 5.31234L14.1021 2.99094L15.5561 4.93284L16.0098 2.56934L16.456 4.93419L17.9163 2.99669L17.2661 5.31619L19.4437 4.18844L17.8261 6.00309L20.2897 5.90849L18.0249 6.85899L20.2866 7.81624L17.8233 7.71424L19.4353 9.53374Z" fill="#FFCC00"/>
</g>
</g>
<path d="M12 0.25C18.4893 0.25 23.75 5.51065 23.75 12C23.75 18.4893 18.4893 23.75 12 23.75C5.51065 23.75 0.25 18.4893 0.25 12C0.25 5.51065 5.51065 0.25 12 0.25Z" stroke="#9C9C9C" stroke-width="0.5"/>
<defs>
<clipPath id="clip0_5102_9156">
<path d="M0 12C0 5.37258 5.37258 0 12 0C18.6274 0 24 5.37258 24 12C24 18.6274 18.6274 24 12 24C5.37258 24 0 18.6274 0 12Z" fill="white"/>
</clipPath>
<clipPath id="clip1_5102_9156">
<rect width="32" height="24" fill="white" transform="translate(-2)"/>
</clipPath>
</defs>
</svg>
