<svg width="24" height="24" viewBox="0 0 24 24" fill="none" xmlns="http://www.w3.org/2000/svg">
<g clip-path="url(#clip0_5102_9178)">
<path d="M0 12C0 5.37258 5.37258 0 12 0C18.6274 0 24 5.37258 24 12C24 18.6274 18.6274 24 12 24C5.37258 24 0 18.6274 0 12Z" fill="white"/>
<g clip-path="url(#clip1_5102_9178)">
<mask id="mask0_5102_9178" style="mask-type:luminance" maskUnits="userSpaceOnUse" x="-1" y="0" width="33" height="24">
<path d="M-0.5 0H31.5V24H-0.5V0Z" fill="white"/>
</mask>
<g mask="url(#mask0_5102_9178)">
<path fill-rule="evenodd" clip-rule="evenodd" d="M-1.5 0H34.5V24H-1.5V0Z" fill="white"/>
<path fill-rule="evenodd" clip-rule="evenodd" d="M-1.5 0H34.5V12H-1.5V0Z" fill="#DF0000"/>
<path fill-rule="evenodd" clip-rule="evenodd" d="M10.8026 2.01133C9.1404 2.39243 7.90535 3.62318 7.5562 5.29638C7.0818 7.56983 8.5624 9.79588 10.8406 10.2708C8.539 10.927 6.16105 9.60418 5.51085 7.32418C4.86105 5.04418 6.18385 2.66618 8.464 2.01608C9.26435 1.78783 10.0013 1.78638 10.8027 2.01133H10.8026Z" fill="white"/>
<path fill-rule="evenodd" clip-rule="evenodd" d="M10.1489 5.49775L10.3936 6.2537L9.74705 5.7922L9.10355 6.25805L9.3427 5.50085L8.70105 5.03315L9.49485 5.0263L9.74145 4.271L9.993 5.02445L10.7874 5.0257L10.1489 5.49775ZM11.0269 8.1007L11.2716 8.85665L10.625 8.39515L9.9815 8.861L10.2206 8.10385L9.579 7.6361L10.3728 7.62925L10.6194 6.87395L10.871 7.62745L11.6654 7.62865L11.0269 8.1007ZM13.9482 8.08195L14.1928 8.8379L13.5462 8.3764L12.9027 8.84225L13.1419 8.0851L12.5002 7.61735L13.2941 7.6105L13.5406 6.8552L13.7922 7.6087L14.5866 7.6099L13.9482 8.08195ZM14.8195 5.5001L15.0642 6.256L14.4176 5.7945L13.7741 6.26035L14.0133 5.5032L13.3717 5.0355L14.1655 5.02865L14.4121 4.27335L14.6636 5.0268L15.4581 5.02805L14.8195 5.5001ZM12.5067 3.7873L12.7514 4.5432L12.1049 4.0817L11.4613 4.54755L11.7005 3.7904L11.0588 3.32265L11.8526 3.31585L12.0992 2.56055L12.3508 3.31395L13.1452 3.3152L12.5067 3.7873Z" fill="white"/>
</g>
</g>
</g>
<path d="M12 0.25C18.4893 0.25 23.75 5.51065 23.75 12C23.75 18.4893 18.4893 23.75 12 23.75C5.51065 23.75 0.25 18.4893 0.25 12C0.25 5.51065 5.51065 0.25 12 0.25Z" stroke="#9C9C9C" stroke-width="0.5"/>
<defs>
<clipPath id="clip0_5102_9178">
<path d="M0 12C0 5.37258 5.37258 0 12 0C18.6274 0 24 5.37258 24 12C24 18.6274 18.6274 24 12 24C5.37258 24 0 18.6274 0 12Z" fill="white"/>
</clipPath>
<clipPath id="clip1_5102_9178">
<rect width="32" height="24" fill="white" transform="translate(-0.5)"/>
</clipPath>
</defs>
</svg>
