<svg width="72" height="72" viewBox="0 0 72 72" fill="none" xmlns="http://www.w3.org/2000/svg">
<rect x="0.5" y="0.5" width="71" height="71" rx="35.5" fill="url(#paint0_linear_5193_9277)" fill-opacity="0.2"/>
<rect x="0.5" y="0.5" width="71" height="71" rx="35.5" stroke="url(#paint1_linear_5193_9277)"/>
<path d="M55.6434 32.0848L37.8123 17.6303C37.3071 17.2222 36.6801 17 36.034 17C35.3879 17 34.7609 17.2222 34.2556 17.6303L16.4245 32.0848C16.3149 32.1587 16.2215 32.2548 16.1505 32.3672C16.0794 32.4795 16.0321 32.6056 16.0116 32.7374C15.9911 32.8692 15.9978 33.0039 16.0314 33.1329C16.065 33.2619 16.1246 33.3825 16.2065 33.487C16.2885 33.5914 16.3909 33.6775 16.5074 33.7397C16.6239 33.802 16.7519 33.839 16.8832 33.8485C17.0146 33.858 17.1465 33.8398 17.2705 33.795C17.3945 33.7501 17.508 33.6797 17.6038 33.5881L20.8181 30.9863V52.1091C20.8181 52.8758 21.1187 53.6111 21.6537 54.1533C22.1888 54.6954 22.9144 55 23.6711 55H30.328C30.5803 55 30.8221 54.8985 31.0005 54.7178C31.1788 54.537 31.279 54.2919 31.279 54.0364V36.691C31.279 35.9243 31.5796 35.189 32.1146 34.6468C32.6497 34.1047 33.3753 33.8001 34.132 33.8001H37.936C38.6926 33.8001 39.4183 34.1047 39.9533 34.6468C40.4884 35.189 40.7889 35.9243 40.7889 36.691V54.0364C40.7889 54.2919 40.8891 54.537 41.0675 54.7178C41.2458 54.8985 41.4877 55 41.7399 55H48.3969C49.1535 55 49.8792 54.6954 50.4142 54.1533C50.9493 53.6111 51.2498 52.8758 51.2498 52.1091V30.9863L54.4642 33.5881C54.6315 33.7241 54.8393 33.7988 55.0538 33.8001C55.1967 33.7994 55.3375 33.7662 55.4659 33.7028C55.5944 33.6394 55.707 33.5475 55.7956 33.4339C55.9511 33.2342 56.0224 32.9803 55.9938 32.7276C55.9653 32.4749 55.8394 32.2438 55.6434 32.0848ZM49.7092 25.8019C49.8491 25.9139 50.0173 25.9839 50.1945 26.0037C50.3717 26.0235 50.5508 25.9925 50.7114 25.9141C50.8721 25.8357 51.0077 25.7132 51.1029 25.5605C51.1981 25.4077 51.249 25.231 51.2498 25.0503V20.3092C51.2498 20.0537 51.1497 19.8086 50.9713 19.6278C50.793 19.4471 50.5511 19.3456 50.2989 19.3456H44.4503C44.2538 19.3468 44.0625 19.4095 43.9026 19.5253C43.7428 19.6411 43.6223 19.8042 43.5577 19.9923C43.493 20.1803 43.4875 20.384 43.5417 20.5753C43.596 20.7667 43.7074 20.9363 43.8606 21.0609L49.7092 25.8019Z" fill="#537CE3"/>
<rect x="36" y="42" width="3" height="6" rx="1" fill="#537CE3"/>
<defs>
<linearGradient id="paint0_linear_5193_9277" x1="13.5" y1="10.2857" x2="61.0714" y2="61.7143" gradientUnits="userSpaceOnUse">
<stop stop-color="#DFEEFF"/>
<stop offset="1" stop-color="#4F97E5"/>
</linearGradient>
<linearGradient id="paint1_linear_5193_9277" x1="0" y1="0" x2="72" y2="72" gradientUnits="userSpaceOnUse">
<stop stop-color="white"/>
<stop offset="1" stop-color="#B3C8FF"/>
</linearGradient>
</defs>
</svg>
