<svg width="72" height="72" viewBox="0 0 72 72" fill="none" xmlns="http://www.w3.org/2000/svg">
<rect x="0.5" y="0.5" width="71" height="71" rx="35.5" fill="url(#paint0_linear_5193_9218)" fill-opacity="0.2"/>
<rect x="0.5" y="0.5" width="71" height="71" rx="35.5" stroke="url(#paint1_linear_5193_9218)"/>
<path d="M52.25 33.5H51C47.7918 33.5 44.6555 34.4496 41.9861 36.2292C39.3168 38.0087 37.2339 40.5386 36 43.5C34.7661 40.5386 32.6832 38.0087 30.0139 36.2292C27.3445 34.4496 24.2082 33.5 21 33.5H19.75C19.4185 33.5 19.1005 33.6317 18.8661 33.8661C18.6317 34.1005 18.5 34.4185 18.5 34.75C18.5 39.0598 20.212 43.193 23.2595 46.2405C26.307 49.288 30.4402 51 34.75 51H37.25C39.384 51 41.4971 50.5797 43.4686 49.763C45.4401 48.9464 47.2315 47.7494 48.7405 46.2405C50.2494 44.7315 51.4464 42.9401 52.263 40.9686C53.0797 38.9971 53.5 36.884 53.5 34.75C53.5 34.4185 53.3683 34.1005 53.1339 33.8661C52.8995 33.6317 52.5815 33.5 52.25 33.5Z" fill="#537CE3"/>
<path d="M42.8626 34.2624C41.8538 34.7815 40.9026 35.4058 40.0251 36.1249C38.4186 37.4096 37.0554 38.9718 36.0001 40.7374C34.9448 38.9718 33.5816 37.4096 31.9751 36.1249C31.0976 35.4058 30.1465 34.7815 29.1376 34.2624C28.8626 29.9374 30.8501 25.6249 35.1126 21.3624C35.2288 21.2453 35.3671 21.1523 35.5194 21.0888C35.6717 21.0253 35.8351 20.9927 36.0001 20.9927C36.1651 20.9927 36.3285 21.0253 36.4808 21.0888C36.6332 21.1523 36.7714 21.2453 36.8876 21.3624C41.1501 25.6249 43.1376 29.9374 42.8626 34.2624Z" fill="#537CE3"/>
<defs>
<linearGradient id="paint0_linear_5193_9218" x1="13.5" y1="10.2857" x2="61.0714" y2="61.7143" gradientUnits="userSpaceOnUse">
<stop stop-color="#DFEEFF"/>
<stop offset="1" stop-color="#4F97E5"/>
</linearGradient>
<linearGradient id="paint1_linear_5193_9218" x1="0" y1="0" x2="72" y2="72" gradientUnits="userSpaceOnUse">
<stop stop-color="white"/>
<stop offset="1" stop-color="#B3C8FF"/>
</linearGradient>
</defs>
</svg>
