<svg width="72" height="72" viewBox="0 0 72 72" fill="none" xmlns="http://www.w3.org/2000/svg">
<rect x="0.5" y="0.5" width="71" height="71" rx="35.5" fill="url(#paint0_linear_5193_9286)" fill-opacity="0.2"/>
<rect x="0.5" y="0.5" width="71" height="71" rx="35.5" stroke="url(#paint1_linear_5193_9286)"/>
<path fill-rule="evenodd" clip-rule="evenodd" d="M24.7126 48.872C24.3815 48.6999 24.1738 48.3578 24.1738 47.9847V36.9294C24.1738 36.3771 24.6215 35.9294 25.1738 35.9294H29.7664C29.8248 35.9294 29.883 35.9344 29.9404 35.945C32.2474 36.3729 34.5341 37.5933 36.8316 39.039C36.9924 39.1403 37.1784 39.1946 37.3684 39.1946H41.4883C43.487 39.3154 44.5319 41.3464 42.5918 42.6786C41.0456 43.8182 39.0111 43.7529 36.9082 43.5668C35.4661 43.4949 35.4043 45.4345 36.9082 45.4443C37.4323 45.4867 38.002 45.3626 38.4967 45.3626C41.0708 45.3626 43.2092 44.8713 44.5283 42.8607C44.559 42.814 44.5851 42.7637 44.6068 42.7121L45.0811 41.5845C45.1741 41.3635 45.3434 41.1832 45.5582 41.0766L51.737 38.0083C51.7795 37.9873 51.8244 37.9687 51.8696 37.9546C55.0936 36.9484 57.3714 40.3035 55.0537 42.6807C55.0193 42.7159 54.9807 42.7487 54.941 42.7778C50.3801 46.1152 45.5023 48.9934 40.3783 51.3707C36.7552 53.5812 33.1322 53.5061 29.5189 51.3707L24.7126 48.872ZM32.2286 18.8587C32.3639 18.3866 32.8595 18.1166 33.3296 18.2589L52.7306 24.1342C53.2532 24.2925 53.5522 24.8407 53.4023 25.3658L50.6673 34.9438C50.5635 35.3074 50.2055 35.537 49.8317 35.4797C49.3867 35.4115 49.1014 34.9696 49.2224 34.5359L51.2734 27.1884L51.306 27.0839C51.4069 26.7115 51.3567 26.3143 51.1663 25.9789C50.976 25.6436 50.6611 25.3976 50.2904 25.2945L49.5852 25.1016C49.5787 25.0998 49.5742 25.0939 49.5742 25.0872C49.5742 25.0805 49.5697 25.0745 49.5631 25.0728L46.2018 24.1811L32.8089 19.94C32.3546 19.7961 32.0973 19.3168 32.2286 18.8587ZM28.6899 21.2297C28.8432 20.6928 29.4065 20.3854 29.941 20.5471L49.2363 26.3838C49.7595 26.5421 50.0587 27.0911 49.9081 27.6166L47.2595 36.8542C47.1057 37.3907 46.5426 37.6974 46.0085 37.5358L26.724 31.6987C26.2013 31.5405 25.9022 30.9922 26.0522 30.467L28.6899 21.2297ZM36.3548 27.3581C36.7117 26.9772 37.1732 26.711 37.681 26.5932C38.1888 26.4755 38.7199 26.5115 39.2073 26.6968C39.6946 26.882 40.1162 27.2082 40.4187 27.6339C40.7211 28.0596 40.8908 28.5658 40.9064 29.0883C40.9219 29.6109 40.7825 30.1263 40.5058 30.5693C40.2291 31.0123 39.8276 31.363 39.3521 31.577C38.8766 31.791 38.3485 31.8587 37.8347 31.7715C37.3208 31.6843 36.8443 31.4461 36.4655 31.087C35.9587 30.6068 35.6625 29.9445 35.6418 29.2455C35.621 28.5465 35.8774 27.8678 36.3548 27.3581ZM32.0666 22.9762C32.0657 22.9762 32.0655 22.9775 32.0664 22.9778L45.1557 27.0487C45.6741 27.2099 45.9387 27.7814 46.0936 28.3017C46.1281 28.4177 46.175 28.5305 46.234 28.6381C46.291 28.7419 46.358 28.8387 46.4337 28.9274C46.7889 29.3436 47.1307 29.8811 46.9824 30.4078L46.1885 33.2261C46.0881 33.5825 45.7096 33.7752 45.3417 33.8177C45.1187 33.8435 44.9029 33.9132 44.7067 34.0226C44.5105 34.1321 44.3378 34.2792 44.1983 34.4557C43.9695 34.7451 43.6036 34.9608 43.2513 34.8512L30.7952 30.9782C30.2771 30.8172 30.0125 30.2463 29.8575 29.7264C29.8226 29.6095 29.7751 29.4958 29.7153 29.3874C29.6588 29.2849 29.5925 29.1893 29.5177 29.1017C29.1608 28.6836 28.8168 28.1428 28.9673 27.6141L29.7678 24.8016C29.8693 24.4448 30.249 24.2528 30.6175 24.2106C30.8409 24.1851 31.0571 24.1155 31.2536 24.006C31.4502 23.8965 31.6233 23.7492 31.763 23.5725C31.9024 23.3961 32.0059 23.1938 32.0674 22.9773C32.0676 22.9767 32.0672 22.9762 32.0666 22.9762ZM16 35.7245C16 35.1722 16.4477 34.7245 17 34.7245H21.4648C22.0171 34.7245 22.4648 35.1722 22.4648 35.7245V48.8654C22.4648 49.4177 22.0171 49.8654 21.4648 49.8654H17C16.4477 49.8654 16 49.4177 16 48.8654V35.7245Z" fill="#537CE3"/>
<defs>
<linearGradient id="paint0_linear_5193_9286" x1="13.5" y1="10.2857" x2="61.0714" y2="61.7143" gradientUnits="userSpaceOnUse">
<stop stop-color="#DFEEFF"/>
<stop offset="1" stop-color="#4F97E5"/>
</linearGradient>
<linearGradient id="paint1_linear_5193_9286" x1="0" y1="0" x2="72" y2="72" gradientUnits="userSpaceOnUse">
<stop stop-color="white"/>
<stop offset="1" stop-color="#B3C8FF"/>
</linearGradient>
</defs>
</svg>
