<svg width="72" height="72" viewBox="0 0 72 72" fill="none" xmlns="http://www.w3.org/2000/svg">
<rect x="0.5" y="0.5" width="71" height="71" rx="35.5" fill="url(#paint0_linear_5193_9228)" fill-opacity="0.2"/>
<rect x="0.5" y="0.5" width="71" height="71" rx="35.5" stroke="url(#paint1_linear_5193_9228)"/>
<path d="M39.6667 16C40.8156 16 41.75 16.92 41.75 18.0513V25.2308H44.875C46.601 25.2308 48 26.6082 48 28.3077V50.8718C48 52.5713 46.601 53.9487 44.875 53.9487C44.875 55.0816 43.9423 56 42.7917 56C41.6411 56 40.7083 55.0816 40.7083 53.9487H30.2917C30.2917 55.0816 29.3589 56 28.2083 56C27.0577 56 26.125 55.0816 26.125 53.9487C24.399 53.9487 23 52.5713 23 50.8718V28.3077C23 26.6082 24.399 25.2308 26.125 25.2308H29.25V18.0513C29.25 16.92 30.1844 16 31.3333 16H39.6667ZM29.25 30.359C28.675 30.359 28.2083 30.8185 28.2083 31.3846V47.7949C28.2083 48.361 28.675 48.8205 29.25 48.8205C29.825 48.8205 30.2917 48.361 30.2917 47.7949V31.3846C30.2917 30.8185 29.825 30.359 29.25 30.359ZM33.4167 30.359C32.8417 30.359 32.375 30.8185 32.375 31.3846V47.7949C32.375 48.361 32.8417 48.8205 33.4167 48.8205C33.9917 48.8205 34.4583 48.361 34.4583 47.7949V31.3846C34.4583 30.8185 33.9917 30.359 33.4167 30.359ZM37.5833 30.359C37.0083 30.359 36.5417 30.8185 36.5417 31.3846V47.7949C36.5417 48.361 37.0083 48.8205 37.5833 48.8205C38.1583 48.8205 38.625 48.361 38.625 47.7949V31.3846C38.625 30.8185 38.1583 30.359 37.5833 30.359ZM41.75 30.359C41.175 30.359 40.7083 30.8185 40.7083 31.3846V47.7949C40.7083 48.361 41.175 48.8205 41.75 48.8205C42.325 48.8205 42.7917 48.361 42.7917 47.7949V31.3846C42.7917 30.8185 42.325 30.359 41.75 30.359ZM31.3333 25.2308H39.6667V18.0513H38.625C38.625 18.6174 38.1583 19.0769 37.5833 19.0769H33.4167C32.8417 19.0769 32.375 18.6174 32.375 18.0513H31.3333V25.2308Z" fill="#537CE3"/>
<defs>
<linearGradient id="paint0_linear_5193_9228" x1="13.5" y1="10.2857" x2="61.0714" y2="61.7143" gradientUnits="userSpaceOnUse">
<stop stop-color="#DFEEFF"/>
<stop offset="1" stop-color="#4F97E5"/>
</linearGradient>
<linearGradient id="paint1_linear_5193_9228" x1="0" y1="0" x2="72" y2="72" gradientUnits="userSpaceOnUse">
<stop stop-color="white"/>
<stop offset="1" stop-color="#B3C8FF"/>
</linearGradient>
</defs>
</svg>
