<svg width="72" height="72" viewBox="0 0 72 72" fill="none" xmlns="http://www.w3.org/2000/svg">
<rect x="0.5" y="0.5" width="71" height="71" rx="35.5" fill="url(#paint0_linear_5193_9160)" fill-opacity="0.2"/>
<rect x="0.5" y="0.5" width="71" height="71" rx="35.5" stroke="url(#paint1_linear_5193_9160)"/>
<path d="M48.5015 35.1287C50.4333 35.1287 52.2862 35.8847 53.6522 37.2301C55.0182 38.5756 55.7856 40.4004 55.7856 42.3032C55.7856 44.2059 55.0182 46.0307 53.6522 47.3762C52.2862 48.7217 50.4333 49.4777 48.5015 49.4777H46.0679C45.524 50.6697 44.773 51.7674 43.8369 52.7134C41.7546 54.8177 38.9304 56 35.9856 56H32.1036C29.1588 56 26.3346 54.8177 24.2522 52.7134C22.1699 50.609 21 47.7548 21 44.7788V35.9919C21 35.763 21.0899 35.5432 21.2501 35.3813C21.4102 35.2195 21.6275 35.1287 21.8539 35.1287H48.5015ZM47.0892 44.7788C47.0892 45.5723 47.0052 46.3571 46.8437 47.1214H48.5015C49.7988 47.1214 51.0431 46.6139 51.9605 45.7104C52.8779 44.8068 53.3936 43.5811 53.3936 42.3032C53.3936 41.0253 52.8779 39.7996 51.9605 38.896C51.0431 37.9924 49.7988 37.4849 48.5015 37.4849H47.0892V44.7788ZM37.5091 19.5231C37.7279 19.5316 37.9356 19.6223 38.0904 19.7771C38.2453 19.9319 38.3363 20.1399 38.3448 20.3588C38.3532 20.5776 38.2787 20.7916 38.1363 20.958C36.7362 22.3624 37.2928 23.8146 38.3146 26.0713L38.3168 26.076C39.273 28.1884 40.4608 30.8127 38.1363 33.1329C37.974 33.2962 37.7534 33.3884 37.5231 33.3894C37.3517 33.3887 37.1844 33.3372 37.042 33.2416C36.8997 33.146 36.7887 33.0103 36.7231 32.8518C36.6577 32.6934 36.6403 32.5193 36.6735 32.3512C36.7067 32.183 36.7891 32.0282 36.91 31.9066C38.3101 30.5021 37.7535 29.0499 36.7316 26.7932L36.7244 26.7766C35.7777 24.6791 34.5898 22.0475 36.91 19.7316C37.0763 19.5892 37.2903 19.5147 37.5091 19.5231ZM30.566 16C30.7958 16 31.0163 16.0911 31.1792 16.2531C31.3411 16.416 31.4318 16.6365 31.4318 16.8662C31.4318 17.096 31.3412 17.3165 31.1792 17.4794C29.7791 18.8839 30.3357 20.3361 31.3575 22.5928L31.3597 22.5975C32.3159 24.7099 33.5037 27.3342 31.1792 29.6544C31.0169 29.8177 30.7963 29.9099 30.566 29.9108C30.3946 29.9101 30.2272 29.8586 30.0849 29.7631C29.9426 29.6675 29.8315 29.5317 29.766 29.3732C29.7006 29.2149 29.6831 29.0407 29.7163 28.8726C29.7496 28.7044 29.832 28.5496 29.9529 28.428C31.353 27.0236 30.7963 25.5713 29.7745 23.3146L29.7673 23.2981C28.8206 21.2006 27.6327 18.569 29.9529 16.2531C30.1158 16.0911 30.3363 16 30.566 16Z" fill="#537CE3"/>
<defs>
<linearGradient id="paint0_linear_5193_9160" x1="13.5" y1="10.2857" x2="61.0714" y2="61.7143" gradientUnits="userSpaceOnUse">
<stop stop-color="#DFEEFF"/>
<stop offset="1" stop-color="#4F97E5"/>
</linearGradient>
<linearGradient id="paint1_linear_5193_9160" x1="0" y1="0" x2="72" y2="72" gradientUnits="userSpaceOnUse">
<stop stop-color="white"/>
<stop offset="1" stop-color="#B3C8FF"/>
</linearGradient>
</defs>
</svg>
