<svg width="121" height="63" viewBox="0 0 121 63" fill="none" xmlns="http://www.w3.org/2000/svg">
<g clip-path="url(#clip0_5193_9135)">
<mask id="mask0_5193_9135" style="mask-type:luminance" maskUnits="userSpaceOnUse" x="0" y="8" width="121" height="55">
<path d="M120.417 8H0V62.382H120.417V8Z" fill="white"/>
</mask>
<g mask="url(#mask0_5193_9135)">
<mask id="mask1_5193_9135" style="mask-type:luminance" maskUnits="userSpaceOnUse" x="0" y="8" width="121" height="55">
<path d="M120.417 8H0V62.382H120.417V8Z" fill="white"/>
</mask>
<g mask="url(#mask1_5193_9135)">
<path fill-rule="evenodd" clip-rule="evenodd" d="M60.8699 8C63.7527 8 66.0808 8.12811 67.85 8.38656C69.6317 8.64496 71.0117 9.09429 71.9652 9.75262C72.9218 10.4132 73.5691 11.3191 73.9041 12.4603C74.2329 13.5788 74.3942 14.9803 74.3942 16.6577V17.4256C74.3942 18.9802 74.2069 20.3327 73.8256 21.478L73.8254 21.4779C73.4482 22.6354 72.7142 23.5751 71.6355 24.2946L71.6335 24.2958C70.6158 24.9624 69.157 25.4327 67.2785 25.7222L72.2669 35.2271C72.9251 36.4805 72.0162 37.984 70.6016 37.984C69.9036 37.984 69.2625 37.5966 68.9372 36.9779L68.9369 36.9777L63.1966 26.0514C62.9852 26.0596 62.766 26.064 62.5387 26.064H45.0832V32.9156L44.6203 32.1649L40.9372 26.1931L40.8999 26.1326V10.9306C40.8999 9.31208 42.2112 8.00003 43.8287 8H60.8699ZM72.2241 35.9153C72.2253 35.924 72.2257 35.9326 72.2267 35.9413C72.2248 35.922 72.2224 35.9026 72.2197 35.8833C72.2212 35.8939 72.2229 35.9047 72.2241 35.9153ZM72.2084 35.8106C72.212 35.8313 72.2154 35.8518 72.2183 35.8725C72.2151 35.8503 72.2115 35.8282 72.2072 35.8058C72.2074 35.8075 72.2079 35.809 72.2084 35.8106ZM72.1899 35.7264C72.179 35.6812 72.1665 35.6359 72.1513 35.5912C72.1583 35.6119 72.1651 35.6328 72.1711 35.6537C72.1761 35.6711 72.1807 35.6884 72.1853 35.706C72.187 35.7127 72.1884 35.7197 72.1899 35.7264ZM61.1192 22.3771H45.0832V11.6871H60.1599C62.4464 11.6871 64.2681 11.7382 65.6276 11.8399L65.6288 11.84H65.63C66.9878 11.9289 67.9794 12.1374 68.6258 12.4492C69.2577 12.7536 69.67 13.22 69.8783 13.8564C70.0965 14.5242 70.2112 15.4539 70.2112 16.6577V17.4256C70.2112 18.4234 70.1387 19.2367 69.998 19.871L69.9689 19.9956C69.8188 20.609 69.4752 21.079 68.9292 21.4162L68.9282 21.4169L68.927 21.4175C68.3871 21.7583 67.5056 22.0152 66.2514 22.1674L66.0132 22.1927C64.7958 22.3152 63.1658 22.3771 61.1192 22.3771ZM68.5561 21.8872L68.6111 21.8636C68.6241 21.8579 68.6371 21.8521 68.6501 21.8463C68.6421 21.8499 68.6342 21.8536 68.6262 21.8571L68.6111 21.8636C68.593 21.8715 68.5745 21.8794 68.5561 21.8872ZM43.4089 8.28316C43.413 8.28256 43.4166 8.28189 43.4205 8.28129C43.4301 8.27986 43.4395 8.27861 43.4489 8.27727C43.4357 8.27916 43.4222 8.28107 43.4089 8.28316Z" fill="#0C0C0C"/>
<path fill-rule="evenodd" clip-rule="evenodd" d="M101.605 8C103.844 8 105.693 8.21213 107.144 8.64384C108.621 9.06672 109.731 9.83305 110.447 10.9536C111.175 12.0602 111.524 13.6068 111.524 15.5636C111.524 17.3428 111.112 18.8363 110.269 20.0269C109.67 20.8745 108.849 21.4491 107.821 21.7592C109.328 22.1371 110.485 22.8649 111.266 23.9599C112.262 25.3423 112.751 27.0729 112.751 29.1344C112.751 30.9045 112.545 32.3759 112.122 33.5389C111.709 34.7124 111.005 35.6335 110.012 36.2917L110.01 36.2931C109.022 36.9334 107.699 37.3704 106.055 37.6166C104.427 37.8625 102.399 37.984 99.9752 37.984H80.4702C79.037 37.984 77.8757 36.822 77.8757 35.3886V10.5957C77.8757 9.16204 79.037 8.00002 80.4702 8H101.605ZM99.9752 34.4121H82.0598V23.8566H98.9782C100.341 23.8566 101.615 23.8949 102.798 23.9713C103.969 24.0469 104.986 24.2479 105.854 24.5704L105.855 24.5709C106.716 24.8864 107.375 25.3982 107.843 26.1056L107.844 26.1065L107.844 26.1077C108.317 26.8058 108.568 27.8053 108.568 29.1344C108.568 30.4397 108.435 31.4438 108.18 32.1601C107.931 32.8459 107.505 33.3387 106.9 33.6534L106.898 33.6544C106.289 33.9773 105.425 34.1905 104.291 34.2788H104.291C103.162 34.3673 101.724 34.4121 99.9752 34.4121ZM98.9782 20.2848H82.0598V11.572H101.605C103.121 11.572 104.299 11.6549 105.146 11.8169L105.222 11.8323C105.998 11.996 106.517 12.3429 106.819 12.8508L106.82 12.8526L106.821 12.8545C107.155 13.3954 107.341 14.2846 107.341 15.5636C107.341 17.1455 107.053 18.2204 106.534 18.8504L106.483 18.91C105.941 19.5201 105.104 19.9135 103.936 20.0616L103.823 20.0753C102.569 20.2146 100.955 20.2848 98.9782 20.2848ZM106.934 18.7184C106.951 18.6917 106.967 18.6645 106.983 18.6369C106.967 18.6641 106.951 18.691 106.935 18.7173L106.934 18.7184C106.918 18.7443 106.902 18.7697 106.885 18.7946L106.934 18.7184Z" fill="#0C0C0C"/>
<path d="M118.327 8C119.481 8 120.418 8.93704 120.418 10.093V35.891C120.418 37.047 119.481 37.984 118.327 37.984C117.171 37.984 116.234 37.047 116.234 35.891V10.093C116.234 8.93697 117.171 8.00001 118.327 8Z" fill="#0C0C0C"/>
<path d="M2.09076 48.3914C2.29294 48.2184 2.50579 48.0742 2.7296 47.9602C3.03322 47.8052 3.35408 47.6965 3.69147 47.6337C4.02259 47.5716 4.36908 47.541 4.73043 47.541H6.91889C8.00893 47.541 8.96864 47.7241 9.79202 48.0976L9.87131 48.1344C10.7163 48.5348 11.3729 49.1376 11.8358 49.9394C12.3063 50.745 12.5344 51.7424 12.5344 52.9195C12.5344 54.096 12.3064 55.0931 11.8363 55.8985C11.3733 56.701 10.7166 57.304 9.87131 57.7044C9.03046 58.1029 8.04412 58.2978 6.91889 58.2978H4.73043C4.41423 58.2978 4.10948 58.2745 3.81641 58.2271L3.69147 58.2054C3.37511 58.1465 3.07334 58.0471 2.78667 57.9073L2.7296 57.8789C2.50576 57.7648 2.29296 57.6205 2.09076 57.4477V62.4208H0V47.541H2.09076V48.3914ZM31.6096 54.0548C31.6096 54.7221 31.8188 55.2438 32.2258 55.6415C32.6213 56.0227 33.2783 56.2376 34.2493 56.2376H37.2342C38.212 56.2376 38.8681 56.022 39.2577 55.6415L39.2953 55.6038C39.6775 55.211 39.874 54.7012 39.874 54.0548V47.541H41.9729V58.1778C41.9729 59.0236 41.7793 59.7717 41.3843 60.4134C40.9903 61.0533 40.4342 61.5482 39.723 61.8984C39.0104 62.2494 38.1786 62.4208 37.2342 62.4208H29.929V60.3605H37.2342C38.2113 60.3605 38.8671 60.1422 39.2568 59.757L39.2587 59.7551C39.6647 59.3633 39.874 58.845 39.874 58.1778V57.4431C39.6746 57.6156 39.4622 57.7612 39.2365 57.8782L39.2351 57.8789C38.9316 58.0336 38.6106 58.1426 38.2732 58.2054C37.9421 58.2673 37.5957 58.2978 37.2342 58.2978H34.2493C33.3395 58.2978 32.5329 58.1368 31.8357 57.8079L31.7685 57.7757C31.0795 57.4364 30.5362 56.9611 30.1448 56.3499L30.1075 56.2907C29.7125 55.649 29.5189 54.9009 29.5189 54.0548V47.541H31.6096V54.0548ZM21.8312 47.541C22.775 47.541 23.6063 47.7097 24.3188 48.0548C25.0275 48.3981 25.5834 48.8751 25.9781 49.4875C26.3743 50.0965 26.5696 50.7974 26.5696 51.5829V58.2978H24.471V57.446C24.2713 57.6205 24.0585 57.7651 23.8318 57.8787L23.8319 57.8789C23.5283 58.0336 23.2076 58.1426 22.8701 58.2054C22.539 58.2673 22.1925 58.2978 21.8312 58.2978H18.4358C17.7826 58.2978 17.1739 58.1924 16.6119 57.979L16.5002 57.9347L16.4978 57.934C15.9413 57.6982 15.4834 57.3524 15.1291 56.8966L15.0579 56.8016C14.6935 56.284 14.518 55.6509 14.518 54.9165C14.518 54.1773 14.6933 53.5459 15.0592 53.0377L15.0603 53.0362C15.4247 52.5384 15.9127 52.1673 16.5169 51.9221C17.1155 51.6791 17.7749 51.5593 18.4922 51.5593H24.4707C24.465 51.0097 24.2631 50.5534 23.8586 50.1773C23.4632 49.8094 22.8046 49.6015 21.8312 49.6015H15.1375V47.541H21.8312ZM4.73043 49.6015C3.75928 49.6015 3.10248 49.8193 2.70693 50.2057L2.70592 50.2065C2.29996 50.5984 2.09076 51.1168 2.09076 51.784V54.0548C2.09076 54.7221 2.30002 55.2438 2.70693 55.6415C3.10253 56.0227 3.75941 56.2376 4.73043 56.2376H6.91889C8.13677 56.2376 9.00849 55.9479 9.57609 55.4079C10.1416 54.8698 10.4436 54.0466 10.4436 52.8952C10.4436 51.7609 10.1421 50.9502 9.57727 50.4201C9.0097 49.8874 8.13754 49.6015 6.91889 49.6015H4.73043ZM18.4117 53.6195C17.8136 53.6195 17.3734 53.7475 17.0657 53.9773L17.0648 53.9781L17.0639 53.9788C16.7678 54.1954 16.6168 54.4981 16.6168 54.9165C16.6168 55.3419 16.7666 55.654 17.0589 55.8807C17.3631 56.1112 17.7801 56.2376 18.3313 56.2376H21.8312C22.8021 56.2376 23.4591 56.0227 23.8547 55.6415L23.8923 55.6038C24.2745 55.211 24.471 54.7012 24.471 54.0548V53.6195H18.4117Z" fill="#4F97E5"/>
</g>
</g>
<g filter="url(#filter0_i_5193_9135)">
<path d="M27.8428 11.7706C26.3591 9.37012 23.9061 7.9965 21.1973 8.00025H21.197C18.5308 8.00037 16.1191 9.33148 14.6294 11.6626L14.5591 11.7744L0.33886 34.4363L0.335985 34.4408C-0.283262 35.4772 -0.0185114 36.8816 0.899887 37.563L1.29914 37.8591V37.7758C2.22798 38.158 3.27275 37.8002 3.8796 36.8932L3.8819 36.8899L3.88391 36.8866L18.0425 14.2237C18.7474 13.1013 19.9193 12.4207 21.1981 12.4136C22.4722 12.4138 23.5859 13.091 24.358 14.2272L33.1696 28.3935H16.3949C15.2482 28.3935 14.3385 29.3871 14.3385 30.5743C14.3385 31.8196 15.244 32.8142 16.3983 32.8142H35.5621C35.688 32.8116 35.8048 32.8131 35.9434 32.7853L38.5289 36.88C38.9414 37.5386 39.5766 37.929 40.301 37.929C40.7343 37.929 41.1582 37.7681 41.4956 37.5501L41.5016 37.5462L41.5073 37.5419C42.4308 36.8679 42.6959 35.4546 42.0757 34.4288L42.0733 34.4251L27.8428 11.7706Z" fill="url(#paint0_linear_5193_9135)"/>
</g>
</g>
<defs>
<filter id="filter0_i_5193_9135" x="0" y="8.00024" width="42.6279" height="30.7919" filterUnits="userSpaceOnUse" color-interpolation-filters="sRGB">
<feFlood flood-opacity="0" result="BackgroundImageFix"/>
<feBlend mode="normal" in="SourceGraphic" in2="BackgroundImageFix" result="shape"/>
<feColorMatrix in="SourceAlpha" type="matrix" values="0 0 0 0 0 0 0 0 0 0 0 0 0 0 0 0 0 0 127 0" result="hardAlpha"/>
<feOffset dx="0.215802" dy="0.863207"/>
<feGaussianBlur stdDeviation="0.431603"/>
<feComposite in2="hardAlpha" operator="arithmetic" k2="-1" k3="1"/>
<feColorMatrix type="matrix" values="0 0 0 0 1 0 0 0 0 1 0 0 0 0 1 0 0 0 0.5 0"/>
<feBlend mode="normal" in2="shape" result="effect1_innerShadow_5193_9135"/>
</filter>
<linearGradient id="paint0_linear_5193_9135" x1="21.206" y1="8.00024" x2="21.206" y2="37.929" gradientUnits="userSpaceOnUse">
<stop stop-color="#4F97E5"/>
<stop offset="1" stop-color="#205996"/>
</linearGradient>
<clipPath id="clip0_5193_9135">
<rect width="121" height="63" fill="white"/>
</clipPath>
</defs>
</svg>
