<svg width="72" height="72" viewBox="0 0 72 72" fill="none" xmlns="http://www.w3.org/2000/svg">
<rect x="0.5" y="0.5" width="71" height="71" rx="35.5" fill="url(#paint0_linear_5193_9268)" fill-opacity="0.2"/>
<rect x="0.5" y="0.5" width="71" height="71" rx="35.5" stroke="url(#paint1_linear_5193_9268)"/>
<path d="M42.383 25C45.5745 25 53.8723 31.2857 54.9362 32.3333C56 33.381 56 37.5714 56 39.6667C56 43.8571 52.8085 43.8571 52.8085 43.8571H49.6943C49.5058 44.5758 49.1252 45.2385 48.5831 45.7723C47.7851 46.5582 46.703 47 45.5745 47C44.4459 47 43.3639 46.5582 42.5658 45.7723C42.0238 45.2385 41.6431 44.5758 41.4546 43.8571H31.6092C31.4207 44.5758 31.04 45.2385 30.498 45.7723C29.7 46.5582 28.6179 47 27.4894 47C26.3608 47 25.2787 46.5582 24.4807 45.7723C23.9387 45.2385 23.558 44.5758 23.3695 43.8571H18.1277C18.1277 43.8571 16 43.8571 16 41.7169C16 40.0208 17.0638 39.6667 17.0638 39.6667V36.5238C17.0638 34.4286 20.2553 33.381 20.2553 33.381L25.3617 32.3333C25.3617 32.3333 32.8085 25 36 25H42.383ZM27.4894 40.7135C26.925 40.7133 26.3834 40.9336 25.9842 41.3265C25.585 41.7194 25.361 42.2529 25.3609 42.8087C25.3608 43.0838 25.4153 43.3566 25.5221 43.6108C25.629 43.865 25.7858 44.0963 25.9834 44.2909C26.1809 44.4856 26.4159 44.6398 26.674 44.7452C26.9322 44.8505 27.2091 44.9047 27.4885 44.9048C27.7679 44.9048 28.0449 44.8504 28.303 44.7452C28.5611 44.6399 28.7961 44.4854 28.9937 44.2909C29.1912 44.0965 29.348 43.8657 29.455 43.6116C29.562 43.3574 29.617 43.0847 29.617 42.8095C29.6172 42.2537 29.3927 41.7204 28.9937 41.3273C28.5947 40.9343 28.0537 40.7136 27.4894 40.7135ZM45.5745 40.7135C45.0101 40.7133 44.4685 40.9336 44.0693 41.3265C43.6701 41.7194 43.4461 42.2529 43.446 42.8087C43.4459 43.0838 43.5004 43.3566 43.6072 43.6108C43.7141 43.865 43.8709 44.0963 44.0685 44.2909C44.266 44.4856 44.501 44.6398 44.7591 44.7452C45.0173 44.8505 45.2942 44.9047 45.5736 44.9048C45.853 44.9048 46.13 44.8504 46.3881 44.7452C46.6462 44.6399 46.8812 44.4854 47.0788 44.2909C47.2763 44.0965 47.4331 43.8657 47.5401 43.6116C47.6471 43.3574 47.7021 43.0847 47.7021 42.8095C47.7023 42.2537 47.4778 41.7204 47.0788 41.3273C46.6798 40.9343 46.1388 40.7136 45.5745 40.7135ZM36 27.0952C33.8723 27.0952 27.4894 33.381 27.4894 33.381C27.4894 33.381 32.8053 33.1057 38.1277 32.8375V27.0952H36ZM40.2553 32.7303C44.5223 32.5166 48.3213 32.3333 48.766 32.3333C49.8298 32.3333 49.8298 31.2857 48.766 30.2381C47.7021 29.1905 43.4468 27.0952 41.3191 27.0952H40.2553V32.7303Z" fill="#537CE3"/>
<defs>
<linearGradient id="paint0_linear_5193_9268" x1="13.5" y1="10.2857" x2="61.0714" y2="61.7143" gradientUnits="userSpaceOnUse">
<stop stop-color="#DFEEFF"/>
<stop offset="1" stop-color="#4F97E5"/>
</linearGradient>
<linearGradient id="paint1_linear_5193_9268" x1="0" y1="0" x2="72" y2="72" gradientUnits="userSpaceOnUse">
<stop stop-color="white"/>
<stop offset="1" stop-color="#B3C8FF"/>
</linearGradient>
</defs>
</svg>
