<svg width="116" height="20" viewBox="0 0 116 20" fill="none" xmlns="http://www.w3.org/2000/svg">
<path d="M9.60416 1.91249C9.64068 1.83871 9.69709 1.7766 9.76704 1.73318C9.83698 1.68976 9.91767 1.66675 9.99999 1.66675C10.0823 1.66675 10.163 1.68976 10.233 1.73318C10.3029 1.7766 10.3593 1.83871 10.3958 1.91249L12.3208 5.81166C12.4476 6.0683 12.6348 6.29033 12.8663 6.4587C13.0979 6.62707 13.3668 6.73675 13.65 6.77833L17.955 7.40833C18.0366 7.42015 18.1132 7.45455 18.1762 7.50766C18.2393 7.56076 18.2862 7.63045 18.3117 7.70883C18.3372 7.78721 18.3402 7.87116 18.3205 7.95119C18.3007 8.03121 18.259 8.10412 18.2 8.16166L15.0867 11.1933C14.8813 11.3934 14.7277 11.6404 14.639 11.913C14.5503 12.1856 14.5292 12.4757 14.5775 12.7583L15.3125 17.0417C15.3269 17.1232 15.3181 17.2071 15.2871 17.2839C15.2561 17.3607 15.2041 17.4272 15.1371 17.4758C15.0701 17.5245 14.9908 17.5533 14.9082 17.5591C14.8256 17.5648 14.7431 17.5472 14.67 17.5083L10.8217 15.485C10.5681 15.3518 10.286 15.2823 9.99958 15.2823C9.71318 15.2823 9.43106 15.3518 9.17749 15.485L5.32999 17.5083C5.25694 17.547 5.17449 17.5644 5.09204 17.5585C5.00958 17.5527 4.93043 17.5238 4.86357 17.4752C4.79672 17.4266 4.74485 17.3601 4.71387 17.2835C4.68289 17.2069 4.67404 17.1231 4.68833 17.0417L5.42249 12.7592C5.47099 12.4764 5.44998 12.1862 5.36128 11.9134C5.27257 11.6406 5.11883 11.3935 4.91333 11.1933L1.79999 8.16249C1.74049 8.10502 1.69832 8.03199 1.6783 7.95172C1.65827 7.87145 1.66119 7.78717 1.68673 7.70849C1.71226 7.6298 1.75938 7.55986 1.82272 7.50665C1.88607 7.45343 1.96308 7.41907 2.04499 7.40749L6.34916 6.77833C6.63271 6.73708 6.90199 6.62754 7.13381 6.45915C7.36564 6.29076 7.55308 6.06855 7.67999 5.81166L9.60416 1.91249Z" fill="#FFC34A" stroke="#FFC34A" stroke-width="1.66667" stroke-linecap="round" stroke-linejoin="round"/>
<path d="M33.6042 1.91249C33.6407 1.83871 33.6971 1.7766 33.767 1.73318C33.837 1.68976 33.9177 1.66675 34 1.66675C34.0823 1.66675 34.163 1.68976 34.233 1.73318C34.3029 1.7766 34.3593 1.83871 34.3958 1.91249L36.3208 5.81166C36.4476 6.0683 36.6348 6.29033 36.8663 6.4587C37.0979 6.62707 37.3668 6.73675 37.65 6.77833L41.955 7.40833C42.0366 7.42015 42.1132 7.45455 42.1762 7.50766C42.2393 7.56076 42.2862 7.63045 42.3117 7.70883C42.3372 7.78721 42.3402 7.87116 42.3205 7.95119C42.3007 8.03121 42.259 8.10412 42.2 8.16166L39.0867 11.1933C38.8813 11.3934 38.7277 11.6404 38.639 11.913C38.5503 12.1856 38.5292 12.4757 38.5775 12.7583L39.3125 17.0417C39.3269 17.1232 39.3181 17.2071 39.2871 17.2839C39.2561 17.3607 39.2041 17.4272 39.1371 17.4758C39.0701 17.5245 38.9908 17.5533 38.9082 17.5591C38.8256 17.5648 38.7431 17.5472 38.67 17.5083L34.8217 15.485C34.5681 15.3518 34.286 15.2823 33.9996 15.2823C33.7132 15.2823 33.4311 15.3518 33.1775 15.485L29.33 17.5083C29.2569 17.547 29.1745 17.5644 29.092 17.5585C29.0096 17.5527 28.9304 17.5238 28.8636 17.4752C28.7967 17.4266 28.7449 17.3601 28.7139 17.2835C28.6829 17.2069 28.674 17.1231 28.6883 17.0417L29.4225 12.7592C29.471 12.4764 29.45 12.1862 29.3613 11.9134C29.2726 11.6406 29.1188 11.3935 28.9133 11.1933L25.8 8.16249C25.7405 8.10502 25.6983 8.03199 25.6783 7.95172C25.6583 7.87145 25.6612 7.78717 25.6867 7.70849C25.7123 7.6298 25.7594 7.55986 25.8227 7.50665C25.8861 7.45343 25.9631 7.41907 26.045 7.40749L30.3492 6.77833C30.6327 6.73708 30.902 6.62754 31.1338 6.45915C31.3656 6.29076 31.5531 6.06855 31.68 5.81166L33.6042 1.91249Z" fill="#FFC34A" stroke="#FFC34A" stroke-width="1.66667" stroke-linecap="round" stroke-linejoin="round"/>
<path d="M57.6042 1.91249C57.6407 1.83871 57.6971 1.7766 57.767 1.73318C57.837 1.68976 57.9177 1.66675 58 1.66675C58.0823 1.66675 58.163 1.68976 58.233 1.73318C58.3029 1.7766 58.3593 1.83871 58.3958 1.91249L60.3208 5.81166C60.4476 6.0683 60.6348 6.29033 60.8663 6.4587C61.0979 6.62707 61.3668 6.73675 61.65 6.77833L65.955 7.40833C66.0366 7.42015 66.1132 7.45455 66.1762 7.50766C66.2393 7.56076 66.2862 7.63045 66.3117 7.70883C66.3372 7.78721 66.3402 7.87116 66.3205 7.95119C66.3007 8.03121 66.259 8.10412 66.2 8.16166L63.0867 11.1933C62.8813 11.3934 62.7277 11.6404 62.639 11.913C62.5503 12.1856 62.5292 12.4757 62.5775 12.7583L63.3125 17.0417C63.3269 17.1232 63.3181 17.2071 63.2871 17.2839C63.2561 17.3607 63.2041 17.4272 63.1371 17.4758C63.0701 17.5245 62.9908 17.5533 62.9082 17.5591C62.8256 17.5648 62.7431 17.5472 62.67 17.5083L58.8217 15.485C58.5681 15.3518 58.286 15.2823 57.9996 15.2823C57.7132 15.2823 57.4311 15.3518 57.1775 15.485L53.33 17.5083C53.2569 17.547 53.1745 17.5644 53.092 17.5585C53.0096 17.5527 52.9304 17.5238 52.8636 17.4752C52.7967 17.4266 52.7449 17.3601 52.7139 17.2835C52.6829 17.2069 52.674 17.1231 52.6883 17.0417L53.4225 12.7592C53.471 12.4764 53.45 12.1862 53.3613 11.9134C53.2726 11.6406 53.1188 11.3935 52.9133 11.1933L49.8 8.16249C49.7405 8.10502 49.6983 8.03199 49.6783 7.95172C49.6583 7.87145 49.6612 7.78717 49.6867 7.70849C49.7123 7.6298 49.7594 7.55986 49.8227 7.50665C49.8861 7.45343 49.9631 7.41907 50.045 7.40749L54.3492 6.77833C54.6327 6.73708 54.902 6.62754 55.1338 6.45915C55.3656 6.29076 55.5531 6.06855 55.68 5.81166L57.6042 1.91249Z" fill="#FFC34A" stroke="#FFC34A" stroke-width="1.66667" stroke-linecap="round" stroke-linejoin="round"/>
<path d="M81.6042 1.91249C81.6407 1.83871 81.6971 1.7766 81.767 1.73318C81.837 1.68976 81.9177 1.66675 82 1.66675C82.0823 1.66675 82.163 1.68976 82.233 1.73318C82.3029 1.7766 82.3593 1.83871 82.3958 1.91249L84.3208 5.81166C84.4476 6.0683 84.6348 6.29033 84.8663 6.4587C85.0979 6.62707 85.3668 6.73675 85.65 6.77833L89.955 7.40833C90.0366 7.42015 90.1132 7.45455 90.1762 7.50766C90.2393 7.56076 90.2862 7.63045 90.3117 7.70883C90.3372 7.78721 90.3402 7.87116 90.3205 7.95119C90.3007 8.03121 90.259 8.10412 90.2 8.16166L87.0867 11.1933C86.8813 11.3934 86.7277 11.6404 86.639 11.913C86.5503 12.1856 86.5292 12.4757 86.5775 12.7583L87.3125 17.0417C87.3269 17.1232 87.3181 17.2071 87.2871 17.2839C87.2561 17.3607 87.2041 17.4272 87.1371 17.4758C87.0701 17.5245 86.9908 17.5533 86.9082 17.5591C86.8256 17.5648 86.7431 17.5472 86.67 17.5083L82.8217 15.485C82.5681 15.3518 82.286 15.2823 81.9996 15.2823C81.7132 15.2823 81.4311 15.3518 81.1775 15.485L77.33 17.5083C77.2569 17.547 77.1745 17.5644 77.092 17.5585C77.0096 17.5527 76.9304 17.5238 76.8636 17.4752C76.7967 17.4266 76.7449 17.3601 76.7139 17.2835C76.6829 17.2069 76.674 17.1231 76.6883 17.0417L77.4225 12.7592C77.471 12.4764 77.45 12.1862 77.3613 11.9134C77.2726 11.6406 77.1188 11.3935 76.9133 11.1933L73.8 8.16249C73.7405 8.10502 73.6983 8.03199 73.6783 7.95172C73.6583 7.87145 73.6612 7.78717 73.6867 7.70849C73.7123 7.6298 73.7594 7.55986 73.8227 7.50665C73.8861 7.45343 73.9631 7.41907 74.045 7.40749L78.3492 6.77833C78.6327 6.73708 78.902 6.62754 79.1338 6.45915C79.3656 6.29076 79.5531 6.06855 79.68 5.81166L81.6042 1.91249Z" fill="#FFC34A" stroke="#FFC34A" stroke-width="1.66667" stroke-linecap="round" stroke-linejoin="round"/>
<path d="M105.604 1.91249C105.641 1.83871 105.697 1.7766 105.767 1.73318C105.837 1.68976 105.918 1.66675 106 1.66675C106.082 1.66675 106.163 1.68976 106.233 1.73318C106.303 1.7766 106.359 1.83871 106.396 1.91249L108.321 5.81166C108.448 6.0683 108.635 6.29033 108.866 6.4587C109.098 6.62707 109.367 6.73675 109.65 6.77833L113.955 7.40833C114.037 7.42015 114.113 7.45455 114.176 7.50766C114.239 7.56076 114.286 7.63045 114.312 7.70883C114.337 7.78721 114.34 7.87116 114.32 7.95119C114.301 8.03121 114.259 8.10412 114.2 8.16166L111.087 11.1933C110.881 11.3934 110.728 11.6404 110.639 11.913C110.55 12.1856 110.529 12.4757 110.577 12.7583L111.312 17.0417C111.327 17.1232 111.318 17.2071 111.287 17.2839C111.256 17.3607 111.204 17.4272 111.137 17.4758C111.07 17.5245 110.991 17.5533 110.908 17.5591C110.826 17.5648 110.743 17.5472 110.67 17.5083L106.822 15.485C106.568 15.3518 106.286 15.2823 106 15.2823C105.713 15.2823 105.431 15.3518 105.177 15.485L101.33 17.5083C101.257 17.547 101.174 17.5644 101.092 17.5585C101.01 17.5527 100.93 17.5238 100.864 17.4752C100.797 17.4266 100.745 17.3601 100.714 17.2835C100.683 17.2069 100.674 17.1231 100.688 17.0417L101.422 12.7592C101.471 12.4764 101.45 12.1862 101.361 11.9134C101.273 11.6406 101.119 11.3935 100.913 11.1933L97.8 8.16249C97.7405 8.10502 97.6983 8.03199 97.6783 7.95172C97.6583 7.87145 97.6612 7.78717 97.6867 7.70849C97.7123 7.6298 97.7594 7.55986 97.8227 7.50665C97.8861 7.45343 97.9631 7.41907 98.045 7.40749L102.349 6.77833C102.633 6.73708 102.902 6.62754 103.134 6.45915C103.366 6.29076 103.553 6.06855 103.68 5.81166L105.604 1.91249Z" fill="#FFC34A" stroke="#FFC34A" stroke-width="1.66667" stroke-linecap="round" stroke-linejoin="round"/>
</svg>
