<svg width="27" height="24" viewBox="0 0 27 24" fill="none" xmlns="http://www.w3.org/2000/svg">
<path d="M1.65532 10.0788C1.65532 10.0788 13.5968 4.99848 17.7383 3.20958C19.3259 2.49409 24.7099 0.204291 24.7099 0.204291C24.7099 0.204291 27.1949 -0.797407 26.9877 1.63539C26.9187 2.63719 26.3665 6.14328 25.8143 9.93567C24.986 15.3023 24.0886 21.1696 24.0886 21.1696C24.0886 21.1696 23.9506 22.8154 22.7772 23.1016C21.6038 23.3878 19.671 22.0999 19.3259 21.8136C19.0497 21.599 14.149 18.3791 12.3543 16.8049C11.8711 16.3756 11.3189 15.517 12.4233 14.5152C14.9082 12.1539 17.8763 9.22017 19.671 7.35978C20.4993 6.50108 21.3276 4.49758 17.8763 6.93038C12.9755 10.4366 8.14374 13.7281 8.14374 13.7281C8.14374 13.7281 7.0393 14.4436 4.96855 13.7996C2.89771 13.1557 0.481813 12.297 0.481813 12.297C0.481813 12.297 -1.17471 11.2237 1.65532 10.0788Z" fill="#FEFEFE"/>
</svg>
