<svg width="40" height="40" viewBox="0 0 40 40" fill="none" xmlns="http://www.w3.org/2000/svg">
<path d="M3.31915 18.8485C3.31915 18.8485 18.246 12.4981 23.4228 10.262C25.4074 9.36761 32.1374 6.50536 32.1374 6.50536C32.1374 6.50536 35.2436 5.25324 34.9847 8.29424C34.8983 9.54648 34.2081 13.9291 33.5179 18.6696C32.4825 25.3778 31.3608 32.7121 31.3608 32.7121C31.3608 32.7121 31.1882 34.7693 29.7215 35.127C28.2547 35.4848 25.8387 33.8749 25.4074 33.5171C25.0622 33.2488 18.9362 29.2238 16.6929 27.2561C16.0889 26.7194 15.3987 25.6462 16.7791 24.3939C19.8853 21.4423 23.5954 17.7752 25.8387 15.4497C26.8742 14.3763 27.9095 11.872 23.5954 14.913C17.4694 19.2957 11.4297 23.4101 11.4297 23.4101C11.4297 23.4101 10.0491 24.3044 7.46069 23.4994C4.87214 22.6946 1.85227 21.6212 1.85227 21.6212C1.85227 21.6212 -0.218382 20.2796 3.31915 18.8485Z" fill="#FEFEFE"/>
</svg>
