<svg width="72" height="72" viewBox="0 0 72 72" fill="none" xmlns="http://www.w3.org/2000/svg">
<rect x="0.5" y="0.5" width="71" height="71" rx="35.5" fill="url(#paint0_linear_5220_10436)" fill-opacity="0.2"/>
<rect x="0.5" y="0.5" width="71" height="71" rx="35.5" stroke="url(#paint1_linear_5220_10436)"/>
<g clip-path="url(#clip0_5220_10436)">
<path d="M52.6784 30.0648H51.2352C50.8404 30.0648 50.8272 29.8063 50.8136 29.6777C50.0568 22.5475 44.0067 16.974 36.6792 16.974H35.3208C28.0475 16.974 22.0328 22.4652 21.204 29.5197C21.1828 29.7004 21.1718 30.0648 20.8394 30.0648H19.3215C18.3253 30.0648 16 31.1131 16 36.4069V39.1852C16 43.1115 18.3253 44.017 19.3215 44.017H24.1506C25.1468 44.017 25.9618 43.202 25.9618 42.2058V31.876C25.9618 30.8798 25.1468 30.0648 24.1506 30.0648C24.1506 30.0648 23.9232 30.0448 23.9812 29.6399C24.7781 24.0646 29.5354 19.7441 35.3208 19.7441H36.6792C42.4252 19.7441 47.1954 24.0008 48.0029 29.5263C48.0289 29.7045 48.126 30.0648 47.8494 30.0648C46.8532 30.0648 46.0382 30.8798 46.0382 31.876V42.2058C46.0382 43.202 46.8532 44.017 47.8494 44.017H48.7562C49.0055 44.017 48.9632 44.2163 48.9409 44.3166C48.2022 47.6521 46.5435 51.4362 42.8206 51.4362H40.0629C39.7815 51.4362 39.712 51.2299 39.6585 51.1322C39.2117 50.316 38.3454 49.7623 37.3493 49.7623H34.8084C33.3549 49.7623 32.1765 50.9405 32.1765 52.3941C32.1765 53.8477 33.3549 55.0258 34.8084 55.0258H37.3493C38.3589 55.0258 39.2354 54.4572 39.6766 53.6229C39.7152 53.55 39.7468 53.3984 40.0446 53.3984H42.8206C45.3493 53.3984 48.7334 52.1418 50.4944 46.1551C50.6821 45.5172 50.8343 44.8814 50.9583 44.2687C50.9754 44.1844 50.986 44.0172 51.2492 44.0172H52.6785C53.6747 44.0172 56 43.1115 56 39.1853V36.407C55.9999 31.1885 53.6745 30.0648 52.6784 30.0648Z" fill="#537CE3"/>
</g>
<defs>
<linearGradient id="paint0_linear_5220_10436" x1="13.5" y1="10.2857" x2="61.0714" y2="61.7143" gradientUnits="userSpaceOnUse">
<stop stop-color="#DFEEFF"/>
<stop offset="1" stop-color="#4F97E5"/>
</linearGradient>
<linearGradient id="paint1_linear_5220_10436" x1="0" y1="0" x2="72" y2="72" gradientUnits="userSpaceOnUse">
<stop stop-color="white"/>
<stop offset="1" stop-color="#B3C8FF"/>
</linearGradient>
<clipPath id="clip0_5220_10436">
<rect width="40" height="40" fill="white" transform="translate(16 16)"/>
</clipPath>
</defs>
</svg>
