<svg width="281" height="79" viewBox="0 0 281 79" fill="none" xmlns="http://www.w3.org/2000/svg">
<path d="M280.262 23.5731C280.506 23.704 280.81 23.6123 280.94 23.3682C281.071 23.1241 280.98 22.8201 280.736 22.6892L280.499 23.1312L280.262 23.5731ZM8.15425e-05 75.7431C8.15425e-05 77.2203 1.19754 78.4177 2.67468 78.4177C4.15182 78.4177 5.34928 77.2203 5.34928 75.7431C5.34928 74.266 4.15182 73.0685 2.67468 73.0685C1.19754 73.0685 8.15425e-05 74.266 8.15425e-05 75.7431ZM3.96076 72.9982C4.04118 72.7331 3.89153 72.4531 3.6265 72.3727C3.36147 72.2922 3.08142 72.4419 3.001 72.7069L3.48088 72.8526L3.96076 72.9982ZM4.99558 67.0627C4.89162 67.3194 5.01544 67.6118 5.27215 67.7157C5.52886 67.8197 5.82125 67.6959 5.92521 67.4392L5.46039 67.2509L4.99558 67.0627ZM8.38981 62.0623C8.51636 61.816 8.41923 61.5137 8.17286 61.3871C7.9265 61.2606 7.6242 61.3577 7.49765 61.6041L7.94373 61.8332L8.38981 62.0623ZM10.4667 56.3978C10.3192 56.6322 10.3897 56.9418 10.6242 57.0893C10.8586 57.2367 11.1682 57.1662 11.3157 56.9318L10.8912 56.6648L10.4667 56.3978ZM14.6694 52.0644C14.8357 51.843 14.7911 51.5286 14.5697 51.3622C14.3483 51.1959 14.0339 51.2405 13.8675 51.4619L14.2684 51.7632L14.6694 52.0644ZM17.6634 46.8041C17.4803 47.0119 17.5003 47.3288 17.7081 47.5119C17.9159 47.695 18.2328 47.675 18.4159 47.4672L18.0397 47.1357L17.6634 46.8041ZM22.4771 43.1833C22.6747 42.9892 22.6775 42.6717 22.4833 42.4741C22.2892 42.2765 21.9717 42.2738 21.7742 42.4679L22.1257 42.8256L22.4771 43.1833ZM26.1805 38.4195C25.9706 38.6001 25.9468 38.9168 26.1275 39.1267C26.3081 39.3367 26.6247 39.3604 26.8347 39.1798L26.5076 38.7996L26.1805 38.4195ZM31.4585 35.4433C31.6791 35.2757 31.722 34.9611 31.5544 34.7406C31.3869 34.52 31.0723 34.4771 30.8517 34.6447L31.1551 35.044L31.4585 35.4433ZM35.7063 31.1657C35.4769 31.3209 35.4167 31.6327 35.5719 31.8621C35.7271 32.0915 36.0388 32.1517 36.2682 31.9965L35.9873 31.5811L35.7063 31.1657ZM41.2575 28.8044C41.4944 28.6609 41.5702 28.3526 41.4267 28.1157C41.2833 27.8787 40.9749 27.803 40.738 27.9464L40.9977 28.3754L41.2575 28.8044ZM45.9462 24.9572C45.7029 25.0896 45.613 25.3942 45.7454 25.6374C45.8777 25.8807 46.1823 25.9706 46.4255 25.8382L46.1859 25.3977L45.9462 24.9572ZM51.6823 23.1209C51.9309 22.9989 52.0335 22.6984 51.9114 22.4498C51.7893 22.2011 51.4888 22.0986 51.2402 22.2207L51.4613 22.6708L51.6823 23.1209ZM56.6546 19.692C56.4014 19.8044 56.2874 20.1007 56.3998 20.3539C56.5122 20.607 56.8085 20.7211 57.0616 20.6087L56.8581 20.1503L56.6546 19.692ZM62.5543 18.2872C62.8113 18.1839 62.9358 17.8918 62.8325 17.6349C62.7292 17.3779 62.4371 17.2533 62.1801 17.3567L62.3672 17.822L62.5543 18.2872ZM67.7357 15.2289C67.4754 15.3238 67.3414 15.6117 67.4363 15.8719C67.5312 16.1321 67.819 16.2661 68.0792 16.1712L67.9074 15.7001L67.7357 15.2289ZM73.7088 14.2166C73.9718 14.1298 74.1145 13.8461 74.0277 13.5832C73.9408 13.3202 73.6572 13.1774 73.3942 13.2643L73.5515 13.7405L73.7088 14.2166ZM79.0827 11.4749C78.8174 11.5543 78.6666 11.8338 78.746 12.0991C78.8254 12.3645 79.1049 12.5152 79.3702 12.4358L79.2265 11.9554L79.0827 11.4749ZM85.0878 10.8083C85.3552 10.7359 85.5133 10.4606 85.441 10.1932C85.3686 9.92588 85.0933 9.76777 84.8259 9.84009L84.9569 10.3242L85.0878 10.8083ZM90.6194 8.35132C90.3503 8.41692 90.1853 8.68824 90.2509 8.95732C90.3165 9.2264 90.5879 9.39135 90.8569 9.32575L90.7381 8.83853L90.6194 8.35132ZM96.6385 7.9887C96.9091 7.92945 97.0803 7.66209 97.0211 7.39154C96.9618 7.12099 96.6945 6.9497 96.4239 7.00895L96.5312 7.49883L96.6385 7.9887ZM102.29 5.79366C102.018 5.84682 101.841 6.11027 101.894 6.38208C101.947 6.6539 102.211 6.83114 102.483 6.77798L102.386 6.28582L102.29 5.79366ZM108.313 5.70215C108.586 5.65476 108.769 5.39514 108.721 5.12226C108.674 4.84938 108.414 4.66658 108.141 4.71396L108.227 5.20806L108.313 5.70215ZM114.043 3.75143C113.77 3.79324 113.582 4.04909 113.623 4.32288C113.665 4.59667 113.921 4.78472 114.195 4.74291L114.119 4.24717L114.043 3.75143ZM120.076 3.90382C120.351 3.86736 120.544 3.61523 120.507 3.34068C120.471 3.06613 120.219 2.87311 119.944 2.90957L120.01 3.40669L120.076 3.90382ZM125.872 2.17949C125.597 2.21077 125.399 2.45921 125.431 2.7344C125.462 3.0096 125.71 3.20733 125.986 3.17605L125.929 2.67777L125.872 2.17949ZM131.901 2.55857C132.177 2.53231 132.379 2.28752 132.353 2.0118C132.327 1.73608 132.082 1.53386 131.806 1.56011L131.854 2.05934L131.901 2.55857ZM137.753 1.04718C137.477 1.06855 137.27 1.30972 137.292 1.58586C137.313 1.862 137.554 2.06853 137.83 2.04717L137.792 1.54717L137.753 1.04718ZM143.767 1.63967C144.043 1.62309 144.254 1.38552 144.237 1.10906C144.221 0.832589 143.983 0.621914 143.707 0.6385L143.737 1.13909L143.767 1.63967ZM149.667 0.331737C149.39 0.343635 149.176 0.577597 149.188 0.854305C149.2 1.13101 149.433 1.34568 149.71 1.33378L149.689 0.832761L149.667 0.331737ZM155.656 1.12787C155.933 1.12059 156.151 0.890241 156.144 0.613373C156.137 0.336505 155.906 0.117964 155.63 0.125247L155.643 0.626561L155.656 1.12787ZM161.599 0.0175281C161.322 0.0202455 161.1 0.246961 161.102 0.523911C161.105 0.800862 161.332 1.02317 161.609 1.02045L161.604 0.518991L161.599 0.0175281ZM167.553 1.01075C167.83 1.01255 168.056 0.789502 168.058 0.512544C168.06 0.235586 167.837 0.00960127 167.56 0.00779245L167.556 0.509269L167.553 1.01075ZM173.535 0.0956275C173.258 0.0892948 173.028 0.308626 173.022 0.585517C173.016 0.862408 173.235 1.09201 173.512 1.09834L173.523 0.596983L173.535 0.0956275ZM179.451 1.28264C179.728 1.29349 179.961 1.07793 179.972 0.801184C179.983 0.524433 179.767 0.291286 179.49 0.280436L179.471 0.781538L179.451 1.28264ZM185.461 0.563704C185.184 0.548296 184.948 0.759981 184.932 1.03652C184.917 1.31305 185.128 1.54972 185.405 1.56512L185.433 1.06441L185.461 0.563704ZM191.338 1.94507C191.614 1.96508 191.854 1.75735 191.874 1.48111C191.894 1.20487 191.686 0.964721 191.41 0.944718L191.374 1.4449L191.338 1.94507ZM197.363 1.42629C197.087 1.40161 196.843 1.60523 196.819 1.8811C196.794 2.15696 196.997 2.40059 197.273 2.42527L197.318 1.92578L197.363 1.42629ZM203.197 3.00669C203.472 3.03614 203.719 2.83676 203.749 2.56137C203.778 2.28598 203.579 2.03885 203.304 2.0094L203.25 2.50805L203.197 3.00669ZM209.224 2.69545C208.949 2.66111 208.698 2.85606 208.664 3.13089C208.629 3.40572 208.824 3.65634 209.099 3.69068L209.161 3.19306L209.224 2.69545ZM215.01 4.4844C215.285 4.5238 215.539 4.33351 215.578 4.05936C215.618 3.78522 215.427 3.53103 215.153 3.49163L215.082 3.98801L215.01 4.4844ZM221.022 4.39196C220.748 4.34733 220.491 4.53274 220.446 4.80609C220.401 5.07943 220.587 5.3372 220.86 5.38183L220.941 4.8869L221.022 4.39196ZM226.754 6.4049C227.026 6.45505 227.288 6.27489 227.338 6.00251C227.388 5.73012 227.208 5.46865 226.936 5.4185L226.845 5.9117L226.754 6.4049ZM232.783 6.55872C232.512 6.5028 232.246 6.67737 232.19 6.94863C232.135 7.21989 232.309 7.48512 232.58 7.54104L232.682 7.04988L232.783 6.55872ZM238.392 8.80708C238.662 8.86913 238.931 8.70061 238.993 8.43069C239.055 8.16077 238.887 7.89165 238.617 7.8296L238.504 8.31834L238.392 8.80708ZM244.436 9.24141C244.167 9.17278 243.894 9.33467 243.825 9.603C243.757 9.87132 243.919 10.1445 244.187 10.2131L244.311 9.72726L244.436 9.24141ZM249.895 11.7521C250.161 11.8277 250.438 11.6731 250.514 11.4066C250.59 11.1402 250.435 10.8629 250.169 10.7872L250.032 11.2696L249.895 11.7521ZM255.916 12.5091C255.652 12.4257 255.371 12.5722 255.287 12.8363C255.204 13.1004 255.35 13.3821 255.614 13.4655L255.765 12.9873L255.916 12.5091ZM261.262 15.3484C261.523 15.4403 261.81 15.303 261.902 15.0417C261.994 14.7805 261.856 14.4942 261.595 14.4023L261.429 14.8753L261.262 15.3484ZM267.168 16.4746C266.91 16.3733 266.619 16.5001 266.518 16.7579C266.416 17.0156 266.543 17.3067 266.801 17.4081L266.984 16.9413L267.168 16.4746ZM272.288 19.6953C272.542 19.8073 272.838 19.6927 272.95 19.4394C273.062 19.1861 272.947 18.8899 272.694 18.7779L272.491 19.2366L272.288 19.6953ZM278.13 21.3376C277.882 21.2134 277.581 21.3133 277.457 21.5609C277.333 21.8084 277.433 22.1098 277.68 22.234L277.905 21.7858L278.13 21.3376ZM2.67468 75.7431L3.16065 75.8669C3.40691 74.9002 3.67375 73.944 3.96076 72.9982L3.48088 72.8526L3.001 72.7069C2.7096 73.6672 2.43871 74.638 2.18871 75.6193L2.67468 75.7431ZM5.46039 67.2509L5.92521 67.4392C6.66803 65.6049 7.49065 63.8128 8.38981 62.0623L7.94373 61.8332L7.49765 61.6041C6.58496 63.3809 5.7498 65.2003 4.99558 67.0627L5.46039 67.2509ZM10.8912 56.6648L11.3157 56.9318C12.3617 55.2688 13.4807 53.6465 14.6694 52.0644L14.2684 51.7632L13.8675 51.4619C12.6626 53.0656 11.5278 54.7107 10.4667 56.3978L10.8912 56.6648ZM18.0397 47.1357L18.4159 47.4672C19.7073 46.0017 21.062 44.5738 22.4771 43.1833L22.1257 42.8256L21.7742 42.4679C20.3425 43.8747 18.9712 45.32 17.6634 46.8041L18.0397 47.1357ZM26.5076 38.7996L26.8347 39.1798C28.3227 37.8996 29.8649 36.6542 31.4585 35.4433L31.1551 35.044L30.8517 34.6447C29.2425 35.8674 27.6845 37.1256 26.1805 38.4195L26.5076 38.7996ZM35.9873 31.5811L36.2682 31.9965C37.8874 30.9013 39.5513 29.8374 41.2575 28.8044L40.9977 28.3754L40.738 27.9464C39.018 28.9878 37.3399 30.0608 35.7063 31.1657L35.9873 31.5811ZM46.1859 25.3977L46.4255 25.8382C48.1418 24.9044 49.8948 23.9987 51.6823 23.1209L51.4613 22.6708L51.2402 22.2207C49.4405 23.1044 47.6751 24.0165 45.9462 24.9572L46.1859 25.3977ZM56.8581 20.1503L57.0616 20.6087C58.8626 19.8089 60.6941 19.0352 62.5543 18.2872L62.3672 17.822L62.1801 17.3567C60.3093 18.1089 58.4667 18.8872 56.6546 19.692L56.8581 20.1503ZM67.9074 15.7001L68.0792 16.1712C69.9314 15.4959 71.8085 14.8445 73.7088 14.2166L73.5515 13.7405L73.3942 13.2643C71.4845 13.8952 69.5977 14.55 67.7357 15.2289L67.9074 15.7001ZM79.2265 11.9554L79.3702 12.4358C81.2566 11.8714 83.163 11.3289 85.0878 10.8083L84.9569 10.3242L84.8259 9.84009C82.8927 10.363 80.9778 10.9079 79.0827 11.4749L79.2265 11.9554ZM90.7381 8.83853L90.8569 9.32575C92.7687 8.85965 94.6964 8.41405 96.6385 7.9887L96.5312 7.49883L96.4239 7.00895C94.4743 7.43594 92.5389 7.88331 90.6194 8.35132L90.7381 8.83853ZM102.386 6.28582L102.483 6.77798C104.414 6.40016 106.358 6.04162 108.313 5.70215L108.227 5.20806L108.141 4.71396C106.18 5.05463 104.229 5.41445 102.29 5.79366L102.386 6.28582ZM114.119 4.24717L114.195 4.74291C116.147 4.44488 118.107 4.16526 120.076 3.90382L120.01 3.40669L119.944 2.90957C117.969 3.17185 116.002 3.4524 114.043 3.75143L114.119 4.24717ZM125.929 2.67777L125.986 3.17605C127.951 2.95262 129.924 2.74686 131.901 2.55857L131.854 2.05934L131.806 1.56011C129.823 1.74897 127.844 1.95536 125.872 2.17949L125.929 2.67777ZM137.792 1.54717L137.83 2.04717C139.806 1.89431 141.785 1.75855 143.767 1.63967L143.737 1.13909L143.707 0.6385C141.72 0.757719 139.735 0.893878 137.753 1.04718L137.792 1.54717ZM149.689 0.832761L149.71 1.33378C151.692 1.24858 153.674 1.18001 155.656 1.12787L155.643 0.626561L155.63 0.125247C153.642 0.177532 151.654 0.246294 149.667 0.331737L149.689 0.832761ZM161.604 0.518991L161.609 1.02045C163.592 1.00099 165.574 0.997822 167.553 1.01075L167.556 0.509269L167.56 0.00779245C165.576 -0.00516659 163.588 -0.00198936 161.599 0.0175281L161.604 0.518991ZM173.523 0.596983L173.512 1.09834C175.497 1.14373 177.477 1.20524 179.451 1.28264L179.471 0.781538L179.49 0.280436C177.511 0.202818 175.525 0.141146 173.535 0.0956275L173.523 0.596983ZM185.433 1.06441L185.405 1.56512C187.391 1.67576 189.369 1.80248 191.338 1.94507L191.374 1.4449L191.41 0.944718C189.435 0.801723 187.452 0.674646 185.461 0.563704L185.433 1.06441ZM197.318 1.92578L197.273 2.42527C199.259 2.60292 201.234 2.7968 203.197 3.00669L203.25 2.50805L203.304 2.0094C201.335 1.79889 199.354 1.60445 197.363 1.42629L197.318 1.92578ZM209.161 3.19306L209.099 3.69068C211.085 3.93875 213.056 4.20341 215.01 4.4844L215.082 3.98801L215.153 3.49163C213.192 3.20975 211.215 2.94427 209.224 2.69545L209.161 3.19306ZM220.941 4.8869L220.86 5.38183C222.844 5.70578 224.809 6.0469 226.754 6.4049L226.845 5.9117L226.936 5.4185C224.984 5.05926 223.012 4.71699 221.022 4.39196L220.941 4.8869ZM232.682 7.04988L232.58 7.54104C234.542 7.94546 236.48 8.36758 238.392 8.80708L238.504 8.31834L238.617 7.8296C236.697 7.38836 234.752 6.96464 232.783 6.55872L232.682 7.04988ZM244.311 9.72726L244.187 10.2131C246.121 10.7077 248.024 11.2208 249.895 11.7521L250.032 11.2696L250.169 10.7872C248.289 10.2535 246.378 9.73811 244.436 9.24141L244.311 9.72726ZM255.765 12.9873L255.614 13.4655C257.538 14.073 259.421 14.7007 261.262 15.3484L261.429 14.8753L261.595 14.4023C259.744 13.7509 257.85 13.1197 255.916 12.5091L255.765 12.9873ZM266.984 16.9413L266.801 17.4081C268.684 18.1482 270.514 18.9108 272.288 19.6953L272.491 19.2366L272.694 18.7779C270.906 17.9875 269.063 17.2196 267.168 16.4746L266.984 16.9413ZM277.905 21.7858L277.68 22.234C278.557 22.6744 279.418 23.1208 280.262 23.5731L280.499 23.1312L280.736 22.6892C279.884 22.2325 279.015 21.782 278.13 21.3376L277.905 21.7858Z" fill="url(#paint0_linear_0_3)"/>
<defs>
<linearGradient id="paint0_linear_0_3" x1="2.67468" y1="76.0152" x2="280.479" y2="23.7585" gradientUnits="userSpaceOnUse">
<stop offset="0.629808" stop-color="#2758D4"/>
<stop offset="0.850962" stop-color="#A1C4FF"/>
<stop offset="1" stop-color="#A7D1FF" stop-opacity="0"/>
</linearGradient>
</defs>
</svg>
