<svg width="72" height="72" viewBox="0 0 72 72" fill="none" xmlns="http://www.w3.org/2000/svg">
<rect x="0.5" y="0.5" width="71" height="71" rx="35.5" fill="url(#paint0_linear_5220_10363)" fill-opacity="0.2"/>
<rect x="0.5" y="0.5" width="71" height="71" rx="35.5" stroke="url(#paint1_linear_5220_10363)"/>
<path d="M36.8633 24.0989C38.3906 22.5715 40.3906 21.8098 42.3906 21.8098C43.9219 21.8098 45.4531 22.2551 46.7695 23.1497L49.7422 20.177C49.8047 20.1184 49.8828 20.0872 49.9648 20.0872C50.0469 20.0872 50.125 20.1145 50.1875 20.177L51.8437 21.8333C51.9648 21.9543 51.9648 22.1536 51.8437 22.2786L48.8711 25.2512C50.9297 28.2903 50.6133 32.4583 47.9219 35.1536L43.9414 39.134C43.8789 39.1926 43.7969 39.2239 43.7187 39.2239C43.6367 39.2239 43.5586 39.1965 43.4961 39.134L32.8828 28.5208C32.7617 28.3997 32.7617 28.2004 32.8828 28.0793L36.8633 24.0989ZM28.0508 32.9075C28.1133 32.8489 28.1953 32.8176 28.2734 32.8176C28.3186 32.8176 28.3626 32.8259 28.4034 32.8438L28.4022 32.8451L39.1842 43.6272C39.2258 43.7384 39.2022 43.8693 39.1133 43.9583L35.1328 47.9387C33.6055 49.4661 31.6055 50.2278 29.6055 50.2278C28.0742 50.2278 26.543 49.7825 25.2266 48.8879L22.2539 51.8606C22.1914 51.9192 22.1133 51.9504 22.0312 51.9504C21.9492 51.9504 21.8711 51.9231 21.8086 51.8606L20.1523 50.2043C20.0313 50.0833 20.0313 49.884 20.1523 49.7629L23.125 46.7903C21.0664 43.7512 21.3828 39.5833 24.0742 36.8879L28.0508 32.9075Z" fill="#537CE3"/>
<path d="M38.1801 37.4302C38.2091 37.4012 38.2435 37.3782 38.2815 37.3625C38.3194 37.3468 38.36 37.3387 38.4011 37.3387C38.4421 37.3387 38.4827 37.3468 38.5206 37.3625C38.5586 37.3782 38.593 37.4012 38.622 37.4302L39.9479 38.7561C39.9769 38.7851 39.9999 38.8195 40.0156 38.8574C40.0313 38.8954 40.0394 38.936 40.0394 38.977C40.0394 39.0181 40.0313 39.0587 40.0156 39.0966C39.9999 39.1345 39.9769 39.169 39.9479 39.198L37.3514 41.7944L35.5837 40.0266L38.1801 37.4302ZM32.7664 32.0164C32.825 31.9578 32.9045 31.9249 32.9873 31.9249C33.0702 31.9249 33.1497 31.9578 33.2083 32.0164L34.5341 33.3423C34.5927 33.4009 34.6256 33.4804 34.6256 33.5633C34.6256 33.6461 34.5927 33.7256 34.5341 33.7842L31.9377 36.3806L30.1699 34.6128L32.7664 32.0164Z" fill="#537CE3"/>
<defs>
<linearGradient id="paint0_linear_5220_10363" x1="13.5" y1="10.2857" x2="61.0714" y2="61.7143" gradientUnits="userSpaceOnUse">
<stop stop-color="#DFEEFF"/>
<stop offset="1" stop-color="#4F97E5"/>
</linearGradient>
<linearGradient id="paint1_linear_5220_10363" x1="0" y1="0" x2="72" y2="72" gradientUnits="userSpaceOnUse">
<stop stop-color="white"/>
<stop offset="1" stop-color="#B3C8FF"/>
</linearGradient>
</defs>
</svg>
