<svg width="32" height="32" viewBox="0 0 32 32" fill="none" xmlns="http://www.w3.org/2000/svg">
<path fill-rule="evenodd" clip-rule="evenodd" d="M25.9202 6.06882C23.2885 3.44634 19.7883 2.00137 16.0588 2C8.37402 2 2.11969 8.22366 2.117 15.8736C2.11568 18.3191 2.75809 20.7061 3.97807 22.8097L2 30L9.39075 28.0707C11.4269 29.1764 13.7198 29.7585 16.0528 29.7592H16.0588C23.7423 29.7592 29.9974 23.5349 30 15.8849C30.0013 12.1774 28.5527 8.69202 25.9202 6.06948V6.06882ZM16.0588 27.4161H16.0542C13.9751 27.4155 11.9356 26.8592 10.1561 25.8088L9.73301 25.5587L5.3471 26.7036L6.51762 22.4478L6.24217 22.0114C5.08237 20.1753 4.46939 18.053 4.4707 15.8743C4.47339 9.51624 9.67152 4.34306 16.0635 4.34306C19.1585 4.34443 22.0679 5.54527 24.2557 7.72535C26.4437 9.90477 27.6476 12.8027 27.6463 15.8836C27.6435 22.2423 22.4455 27.4155 16.0588 27.4155V27.4161ZM22.4147 18.7795C22.0664 18.6059 20.3539 17.7676 20.0343 17.6519C19.7148 17.5361 19.4828 17.4783 19.2508 17.8255C19.0189 18.1728 18.3511 18.9538 18.1479 19.1846C17.9446 19.4162 17.7414 19.4448 17.3931 19.2711C17.0449 19.0975 15.9225 18.7316 14.5915 17.5507C13.5561 16.6313 12.8568 15.4964 12.6536 15.1491C12.4504 14.8019 12.6322 14.6142 12.806 14.4419C12.9624 14.2863 13.1543 14.0368 13.3288 13.8345C13.5032 13.6323 13.5607 13.4873 13.677 13.2564C13.7934 13.0249 13.7352 12.8227 13.6484 12.649C13.5614 12.4754 12.8648 10.7689 12.574 10.0751C12.2912 9.3992 12.0039 9.491 11.7906 9.47969C11.5873 9.46969 11.3554 9.46772 11.1228 9.46772C10.8902 9.46772 10.5131 9.55416 10.1936 9.90149C9.87405 10.2487 8.97426 11.0876 8.97426 12.7933C8.97426 14.4992 10.2224 16.1484 10.3968 16.3799C10.5713 16.6114 12.8534 20.1127 16.3476 21.615C17.1786 21.9722 17.8276 22.1857 18.3337 22.3454C19.168 22.6095 19.9273 22.5723 20.5276 22.4831C21.1968 22.3833 22.5886 21.6442 22.8787 20.8345C23.1688 20.0249 23.1688 19.3304 23.0819 19.1859C22.995 19.0416 22.7624 18.9544 22.4141 18.7809L22.4147 18.7795Z" fill="white"/>
</svg>
