<svg width="340" height="340" viewBox="0 0 340 340" fill="none" xmlns="http://www.w3.org/2000/svg">
<rect width="340" height="340" rx="170" fill="url(#paint0_linear_1343_32)"/>
<path d="M206.961 99.7313C198.81 86.5322 185.334 78.9794 170.452 79H170.451C155.803 79.0007 142.554 86.3197 134.37 99.137L133.984 99.7519L55.8616 224.357L55.8458 224.382C52.4438 230.08 53.8983 237.802 58.9437 241.549L61.1371 243.177V242.719C66.2399 244.82 71.9796 242.853 75.3134 237.866L75.3261 237.848L75.3371 237.83L153.121 113.219C156.993 107.048 163.431 103.306 170.457 103.266C177.456 103.268 183.575 106.991 187.816 113.238L236.225 191.131H144.069C137.77 191.131 132.772 196.594 132.772 203.122C132.772 209.969 137.747 215.438 144.088 215.438H249.368C250.06 215.424 250.702 215.432 251.463 215.279L265.667 237.793C267.933 241.415 271.423 243.561 275.403 243.561C277.783 243.561 280.112 242.677 281.965 241.478L281.998 241.457L282.03 241.433C287.103 237.727 288.559 229.956 285.152 224.316L285.139 224.295L206.961 99.7313Z" fill="white"/>
<defs>
<linearGradient id="paint0_linear_1343_32" x1="170" y1="5.06639e-06" x2="340" y2="340" gradientUnits="userSpaceOnUse">
<stop stop-color="#4F97E5"/>
<stop offset="1" stop-color="#0F2A48"/>
</linearGradient>
</defs>
</svg>
